<svg xmlns="http://www.w3.org/2000/svg" xmlns:xlink="http://www.w3.org/1999/xlink" viewBox="0 0 775 193.8" height="732.472" width="2929.134" xmlns:v="https://vecta.io/nano"><style><![CDATA[.B{fill:#bfbfff}.C{fill-rule:evenodd}.D{stroke:#000}.E{opacity:.75}.F{stroke-width:.494}.G{fill:#8080ff}.H{fill:#9f9fff}.I{stroke-miterlimit:5.3333}.J{overflow:visible}.K{stroke-width:1pt}.L{stroke-opacity:1}.M{fill-opacity:1}.N{fill:#ffe6e6}.O{stroke-miterlimit:10}]]></style><defs><marker id="A" refX="0.0" refY="0.0" orient="auto" class="J"><path transform="scale(.4)" d="M5.77 0l-8.65 5V-5l8.65 5z" fill="#000" class="C D K L M"/></marker><marker id="B" refX="0.0" refY="0.0" orient="auto" class="J"><path transform="scale(.4)" d="M5.77 0l-8.65 5V-5l8.65 5z" fill="#000" class="C D K L M"/></marker><marker id="C" refX="0" refY="0" orient="auto" class="J"><path transform="scale(.4)" d="M5.77 0l-8.65 5V-5z" fill="#000" class="C D K L M"/></marker><path id="D" d="M244.843 80.086c0-3.26 6.715-5.923 14.904-5.923 8.196 0 14.904 2.663 14.904 5.923s-6.709 5.923-14.904 5.923c-8.293 0-14.904-2.664-14.904-5.923z"/><path id="E" d="M9.472 3.563V2.438l-1.656.078v.469c.609 0 .688 0 .688.391v3.078h-.687v.469l1.25-.031 1.375.031v-.469h-.859v-1.75c0-.687.234-1.906 1.234-1.906 0 .016-.187.172-.187.453 0 .406.328.609.609.609.297 0 .609-.203.609-.609 0-.531-.531-.812-1.062-.812-.687 0-1.094.5-1.312 1.125zm0 0"/><path id="F" d="M17.565 4.75c0-1.344-.922-2.344-2.547-2.344-1.641 0-2.547 1.016-2.547 2.344 0 1.234.891 2.234 2.547 2.234 1.672 0 2.547-1.016 2.547-2.234zm-2.547 1.828c-1.266 0-1.266-1.078-1.266-1.937 0-.453 0-.953.172-1.297.188-.375.609-.578 1.094-.578.422 0 .844.156 1.063.5.203.344.203.891.203 1.375 0 .859 0 1.938-1.266 1.938zm0 0"/><path id="G" d="M21.8 2.859c-.187.172-.203.375-.203.469a.6.6 0 0 0 .609.625c.313 0 .641-.219.641-.625 0-.859-1.156-.922-1.734-.922-1.797 0-2.531 1.141-2.531 2.297 0 1.328.938 2.281 2.469 2.281 1.625 0 1.922-1.156 1.922-1.234 0-.141-.141-.141-.234-.141-.187 0-.187.031-.25.156-.25.625-.734.813-1.234.813-1.391 0-1.391-1.453-1.391-1.922 0-.562 0-1.844 1.281-1.844.359 0 .516.016.656.047zm0 0"/><path id="H" d="M27.907 4.75c.219 0 .313 0 .313-.266 0-.312-.062-1.047-.562-1.547-.359-.359-.891-.531-1.578-.531-1.594 0-2.469 1.031-2.469 2.266 0 1.344 1 2.313 2.609 2.313 1.578 0 2-1.062 2-1.234s-.187-.172-.234-.172c-.172 0-.187.047-.25.203-.203.484-.781.797-1.422.797-1.406 0-1.422-1.328-1.422-1.828zm-3.016-.328c.016-.391.031-.812.234-1.141.266-.391.672-.516.953-.516 1.172 0 1.188 1.313 1.203 1.656zm0 0"/><path id="I" d="M30.658 3.984c-.375-.062-1.016-.172-1.016-.641 0-.625.922-.625 1.109-.625.75 0 1.125.297 1.172.844.016.156.031.203.234.203.234 0 .234-.047.234-.281v-.797c0-.187 0-.281-.172-.281-.047 0-.062 0-.453.188-.266-.125-.609-.187-1-.187-.312 0-1.844 0-1.844 1.313 0 .391.203.656.406.828.391.344.781.406 1.547.547.359.063 1.094.188 1.094.781 0 .75-.906.75-1.125.75-1.062 0-1.312-.734-1.437-1.156-.047-.141-.109-.141-.234-.141-.25 0-.25.063-.25.281v1.094c0 .188 0 .281.188.281.063 0 .078 0 .297-.156.016 0 .234-.141.25-.172.469.328.984.328 1.188.328.313 0 1.844 0 1.844-1.453 0-.437-.203-.781-.547-1.062-.391-.281-.719-.344-1.484-.484zm0 0"/><path id="J" d="M53.308 3.906c-.375-.062-1.016-.172-1.016-.641 0-.625.922-.625 1.109-.625.75 0 1.125.297 1.172.844.016.156.031.203.234.203.234 0 .234-.047.234-.281V2.61c0-.187 0-.281-.172-.281-.047 0-.062 0-.453.188-.266-.125-.609-.187-1-.187-.312 0-1.844 0-1.844 1.313 0 .391.203.656.406.828.391.344.781.406 1.547.547.359.063 1.094.188 1.094.781 0 .75-.906.75-1.125.75-1.062 0-1.312-.734-1.437-1.156-.047-.141-.109-.141-.234-.141-.25 0-.25.063-.25.281v1.094c0 .188 0 .281.188.281.063 0 .078 0 .297-.156.016 0 .234-.141.25-.172.469.328.984.328 1.188.328.313 0 1.844 0 1.844-1.453 0-.437-.203-.781-.547-1.062-.391-.281-.719-.344-1.484-.484zm0 0"/><path id="K" d="M5.031 5.609L2.641.328c-.109-.25-.219-.25-.437-.25H0v.469h1.063v5.625c0 .219 0 .219-.281.25-.234.031-.266.031-.547.031H0v.469c.375-.031.938-.031 1.328-.031l1.344.031v-.469h-.25c-.172 0-.344-.016-.531-.031-.281-.031-.297-.031-.297-.25V.688h.016l2.703 5.984c.094.203.219.25.328.25.203 0 .281-.156.313-.234L7.735.547h.016v5.906H6.672v.469c.359-.031 1.281-.031 1.688-.031l1.719.031v-.469H9V.547h1.078V.078H7.875c-.219 0-.344 0-.453.25zm0 0"/><path id="L" d="M14.204 6.156c0 .313 0 .766 1.031.766h.484c.188 0 .313 0 .313-.234s-.125-.234-.266-.234c-.609-.016-.609-.141-.609-.375V3.938c0-.891-.703-1.531-2.187-1.531-.562 0-1.781.047-1.781.922a.6.6 0 0 0 .609.625c.313 0 .641-.219.641-.625 0-.297-.187-.469-.219-.5.281-.047.594-.062.719-.062.734 0 1.094.422 1.094 1.172v.344c-.719.031-3.25.125-3.25 1.563 0 .953 1.25 1.141 1.938 1.141.797 0 1.266-.406 1.484-.828zm-.172-1.562v.938c0 .969-.922 1.094-1.172 1.094-.5 0-.906-.344-.906-.797 0-1.062 1.578-1.203 2.078-1.234zm0 0"/><path id="M" d="M17.18 3.375v3.078h-.687v.469l1.25-.031 1.25.031v-.469h-.687V4.375a1.51 1.51 0 0 1 1.5-1.578c.328 0 .547.203.547.969v2.688h-.687v.469l1.25-.031 1.25.031v-.469h-.687V3.875c0-1.047-.531-1.437-1.531-1.437-.953 0-1.484.563-1.75 1.078V2.438l-1.703.078v.469c.609 0 .688 0 .688.391zm0 0"/><path id="N" d="M26.445 6.203v.781l1.766-.062v-.469c-.609 0-.687 0-.687-.391V2.438l-1.812.078v.469c.609 0 .688 0 .688.391v1.906c0 .813-.516 1.344-1.234 1.344-.781 0-.812-.25-.812-.797V2.438l-1.812.078v.469c.609 0 .688 0 .688.391v2.328c0 1.063.797 1.281 1.797 1.281.25 0 .969 0 1.422-.781zm0 0"/><path id="O" d="M36.254 0l-1.766.078v.469c.625 0 .688 0 .688.391v5.516h-.687v.469l1.219-.031 1.234.031v-.469h-.687zm0 0"/><path id="P" d="M45.431 3.172c.063-.141.094-.203.734-.203V2.5l-.781.031c-.25 0-.703-.031-.906-.031v.469c.016 0 .469 0 .469.109a.47.47 0 0 1-.062.125l-1.141 2.453-1.266-2.687h.531V2.5l-1.234.031c-.281 0-.719-.031-1.125-.031v.469h.625l1.875 3.953-.234.484c-.219.469-.531 1.156-1.25 1.156-.141 0-.156-.016-.234-.047.094-.031.313-.172.313-.531 0-.328-.234-.562-.578-.562a.55.55 0 0 0-.562.578c0 .5.469.922 1.063.922.766 0 1.344-.625 1.625-1.187zm0 0"/><path id="Q" d="M12.847 3.594V2.469l-1.656.078v.469c.609 0 .688 0 .688.391v3.078h-.687v.469l1.25-.031 1.375.031v-.469h-.859v-1.75c0-.687.234-1.906 1.234-1.906 0 .016-.187.172-.187.453 0 .406.328.609.609.609.297 0 .609-.203.609-.609 0-.531-.531-.812-1.062-.812-.687 0-1.094.5-1.312 1.125zm0 0"/><path id="R" d="M27.178 3.406v3.078h-.687v.469l1.25-.031 1.25.031v-.469h-.687V4.406a1.51 1.51 0 0 1 1.5-1.578c.328 0 .547.203.547.969v2.688h-.687v.469l1.25-.031 1.25.031v-.469h-.687V3.906c0-1.047-.531-1.437-1.531-1.437-.953 0-1.484.563-1.75 1.078V2.469l-1.703.078v.469c.609 0 .688 0 .688.391zm0 0"/><path id="S" d="M41.825 6.531v.484l1.813-.062v-.469c-.609 0-.687 0-.687-.391V.031l-1.766.078v.469c.625 0 .703 0 .703.391v1.953c-.5-.391-1.031-.453-1.359-.453-1.453 0-2.5.875-2.5 2.281 0 1.313.922 2.266 2.391 2.266.609 0 1.094-.234 1.406-.484zm0-3.094v2.484c-.141.188-.547.734-1.297.734-1.219 0-1.219-1.203-1.219-1.906 0-.484 0-1.016.25-1.406.297-.422.766-.516 1.078-.516.563 0 .969.313 1.188.609zm0 0"/><path id="T" d="M2.437 3.328V.547h1.172c1.609 0 1.625.781 1.625 1.391 0 .563 0 1.391-1.641 1.391zm2.656.203C6.25 3.234 6.75 2.578 6.75 1.922c0-1-1.094-1.844-2.969-1.844H0v.469h1.078v5.906H0v.469c.359-.031 1.328-.031 1.75-.031l1.75.031v-.469H2.437V3.688h1.156c.141 0 .578 0 .891.328.313.359.313.547.313 1.266 0 .656 0 1.156.703 1.484.438.219 1.063.266 1.469.266 1.063 0 1.188-.891 1.188-1.062 0-.219-.141-.219-.234-.219-.203 0-.219.109-.234.234-.047.469-.328.688-.625.688-.609 0-.687-.703-.75-1.125l-.109-.844C6.062 4 5.515 3.688 5.093 3.531zm0 0"/><path id="U" d="M35.287 6.5v.484l1.813-.062v-.469c-.609 0-.687 0-.687-.391V0l-1.766.078v.469c.625 0 .703 0 .703.391v1.953c-.5-.391-1.031-.453-1.359-.453-1.453 0-2.5.875-2.5 2.281 0 1.313.922 2.266 2.391 2.266.609 0 1.094-.234 1.406-.484zm0-3.094v2.484c-.141.188-.547.734-1.297.734-1.219 0-1.219-1.203-1.219-1.906 0-.484 0-1.016.25-1.406.297-.422.766-.516 1.078-.516.563 0 .969.313 1.188.609zm0 0"/><path id="V" d="M43.437 2.922V0l-1.766.078v.469c.609 0 .688 0 .688.391v5.984h.469l.484-.562c.078.078.563.625 1.453.625 1.484 0 2.516-.906 2.516-2.281 0-1.328-.937-2.266-2.391-2.266-.719 0-1.219.281-1.453.484zm.047 3.016v-2.5c.281-.359.75-.641 1.297-.641 1.219 0 1.219 1.203 1.219 1.906 0 .469 0 1.016-.25 1.406-.297.406-.75.516-1.078.516-.687 0-1.078-.547-1.187-.687zm0 0"/><path id="W" d="M26.933 3.172c.063-.141.094-.203.734-.203V2.5l-.781.031c-.25 0-.703-.031-.906-.031v.469c.188 0 .469.031.469.109 0 0 0 .031-.047.109l-1.156 2.5-1.266-2.719h.531V2.5l-1.234.031c-.281 0-.719-.031-1.125-.031v.469h.625l1.75 3.75c.125.25.25.25.375.25.172 0 .281-.031.375-.25zm0 0"/><path id="X" d="M28.55 3.078v2.734c0 1.063.859 1.281 1.578 1.281.75 0 1.203-.578 1.203-1.297v-.531h-.469v.516c0 .672-.328.906-.609.906-.578 0-.578-.641-.578-.859v-2.75h1.469v-.469h-1.469V.703h-.469c0 1-.484 1.984-1.484 2.016v.359zm0 0"/><path id="Y" d="M65.565 6.265c0 .313 0 .766 1.031.766h.484c.188 0 .313 0 .313-.234s-.125-.234-.266-.234c-.609-.016-.609-.141-.609-.375V4.047c0-.891-.703-1.531-2.187-1.531-.562 0-1.781.047-1.781.922a.6.6 0 0 0 .609.625c.313 0 .641-.219.641-.625 0-.297-.187-.469-.219-.5.281-.047.594-.062.719-.062.734 0 1.094.422 1.094 1.172v.344c-.719.031-3.25.125-3.25 1.563 0 .953 1.25 1.141 1.938 1.141.797 0 1.266-.406 1.484-.828zm-.172-1.562v.938c0 .969-.922 1.094-1.172 1.094-.5 0-.906-.344-.906-.797 0-1.062 1.578-1.203 2.078-1.234zm0 0"/><path id="Z" d="M6.812 4.188h-.469C6.125 5.563 5.843 6.453 4 6.453H2.484V3.641h.547c.969 0 1.063.438 1.063 1.172h.469V2h-.469c0 .75-.094 1.172-1.062 1.172h-.547V.609H4c1.609 0 1.875.734 2.031 1.938H6.5L6.187.141H0v.469h1.078v5.844H0v.469h6.359zm0 0"/><path id="a" d="M29.401 14.846v2.734c0 1.063.859 1.281 1.578 1.281.75 0 1.203-.578 1.203-1.297v-.531h-.469v.516c0 .672-.328.906-.609.906-.578 0-.578-.641-.578-.859v-2.75h1.469v-.469h-1.469v-1.906h-.469c0 1-.484 1.984-1.484 2.016v.359zm0 0"/><path id="b" d="M36.559 18.033c0 .313 0 .766 1.031.766h.484c.188 0 .313 0 .313-.234s-.125-.234-.266-.234c-.609-.016-.609-.141-.609-.375v-2.141c0-.891-.703-1.531-2.187-1.531-.562 0-1.781.047-1.781.922a.6.6 0 0 0 .609.625c.313 0 .641-.219.641-.625 0-.297-.187-.469-.219-.5.281-.047.594-.062.719-.062.734 0 1.094.422 1.094 1.172v.344c-.719.031-3.25.125-3.25 1.563 0 .953 1.25 1.141 1.938 1.141.797 0 1.266-.406 1.484-.828zm-.172-1.562v.938c0 .969-.922 1.094-1.172 1.094-.5 0-.906-.344-.906-.797 0-1.062 1.578-1.203 2.078-1.234zm0 0"/><path id="c" d="M150.931 131.109v-2.437c0-.344.016-.406.484-.406h1.234c.969 0 1.313.844 1.313 1.375 0 .641-.484 1.469-1.594 1.469zm2.344.094c.969-.187 1.656-.828 1.656-1.562 0-.859-.922-1.687-2.219-1.687h-3.641v.313h.234c.766 0 .797.109.797.469v5.25c0 .359-.031.469-.797.469h-.234v.313h3.906c1.328 0 2.219-.891 2.219-1.828 0-.859-.812-1.609-1.922-1.734zm-.609 3.25h-1.25c-.469 0-.484-.062-.484-.391v-2.719h1.875c.984 0 1.406.922 1.406 1.594 0 .703-.531 1.516-1.547 1.516zm0 0"/><path id="d" d="M157.535 130.359l-1.391.109v.313c.641 0 .734.063.734.547v2.688c0 .438-.109.438-.781.438v.313l1.094-.031 1.047.031v-.312c-.672 0-.703-.047-.703-.437zm.031-1.734c0-.312-.234-.531-.516-.531-.312 0-.531.266-.531.531s.219.531.531.531c.281 0 .516-.219.516-.531zm0 0"/><path id="e" d="M163.224 132.624c0-1.266-.984-2.328-2.187-2.328-1.25 0-2.219 1.094-2.219 2.328 0 1.297 1.031 2.25 2.203 2.25 1.203 0 2.203-.984 2.203-2.25zm-2.187 2c-.437 0-.875-.203-1.141-.672-.25-.437-.25-1.047-.25-1.406 0-.391 0-.922.234-1.359.266-.453.734-.672 1.141-.672.438 0 .859.219 1.125.656.266.422.266 1 .266 1.375 0 .359 0 .906-.219 1.344-.234.453-.672.734-1.156.734zm0 0"/><path id="f" d="M172.928 132.249c.063-1.484.906-1.734 1.25-1.734 1.016 0 1.125 1.344 1.125 1.734zm0 .219h2.781c.219 0 .25 0 .25-.219 0-.984-.547-1.953-1.781-1.953-1.156 0-2.078 1.031-2.078 2.281 0 1.328 1.047 2.297 2.188 2.297 1.219 0 1.672-1.109 1.672-1.297 0-.094-.078-.125-.141-.125-.078 0-.109.063-.125.141-.344 1.031-1.25 1.031-1.344 1.031-.5 0-.891-.297-1.125-.672-.297-.469-.297-1.125-.297-1.484zm0 0"/><path id="g" d="M185.721 132.593c0-1.625.813-2.047 1.344-2.047.094 0 .719.016 1.063.375-.406.031-.469.328-.469.453 0 .266.188.453.453.453a.43.43 0 0 0 .469-.469c0-.672-.766-1.062-1.531-1.062-1.25 0-2.156 1.078-2.156 2.313 0 1.281.984 2.266 2.141 2.266a1.66 1.66 0 0 0 1.656-1.297c0-.094-.109-.094-.141-.094-.078 0-.109.031-.125.094-.281.922-.937 1.047-1.297 1.047-.531 0-1.406-.422-1.406-2.031zm0 0"/><path id="h" d="M192.29 134.015c.047.391.313.813.781.813.219 0 .828-.141.828-.953v-.562h-.25v.563c0 .578-.25.641-.359.641-.328 0-.375-.453-.375-.5v-1.984c0-.422 0-.812-.359-1.187-.391-.391-.891-.547-1.359-.547-.828 0-1.516.469-1.516 1.125a.44.44 0 0 0 .469.469c.281 0 .453-.203.453-.453 0-.125-.047-.453-.516-.453.281-.359.766-.469 1.078-.469.5 0 1.063.391 1.063 1.281v.359c-.516.031-1.203.063-1.828.359-.75.344-1 .859-1 1.297 0 .813.969 1.063 1.594 1.063a1.38 1.38 0 0 0 1.297-.859zm-.062-1.641v1c0 .938-.719 1.281-1.172 1.281-.484 0-.891-.344-.891-.844 0-.547.422-1.375 2.063-1.437zm0 0"/><path id="i" d="M195.724 127.843l-1.437.109v.313c.703 0 .781.063.781.563v5.188c0 .438-.109.438-.781.438v.313l1.109-.031 1.109.031v-.312c-.672 0-.781 0-.781-.437zm0 0"/><path id="j" d="M213.882 132.828c.219.047 1.031.203 1.031.922 0 .5-.344.906-1.125.906-.844 0-1.203-.562-1.391-1.422-.031-.125-.031-.156-.141-.156-.125 0-.125.063-.125.234v1.328c0 .172 0 .234.109.234.047 0 .063-.016.25-.203.016-.016.016-.031.203-.219a1.53 1.53 0 0 0 1.094.422c1.141 0 1.609-.672 1.609-1.391 0-.516-.297-.828-.422-.937-.328-.328-.719-.406-1.141-.484-.562-.109-1.219-.234-1.219-.812 0-.359.25-.766 1.109-.766 1.094 0 1.156.906 1.172 1.203 0 .094.094.094.109.094.141 0 .141-.047.141-.234v-1.016c0-.156 0-.234-.109-.234-.047 0-.078 0-.203.125l-.172.156c-.375-.281-.781-.281-.937-.281-1.219 0-1.594.672-1.594 1.234 0 .344.156.625.422.844.328.25.609.313 1.328.453zm0 0"/><path id="k" d="M226.824 131.453v-1.094l-1.391.109v.313c.703 0 .781.063.781.563v2.672c0 .438-.109.438-.781.438v.313l1.141-.031 1.266.031v-.312h-.219c-.734 0-.75-.109-.75-.469v-1.531c0-.984.422-1.875 1.172-1.875.063 0 .094 0 .109.016-.031 0-.234.125-.234.391s.219.422.438.422a.42.42 0 0 0 .422-.437c0-.312-.312-.609-.734-.609-.734 0-1.094.672-1.219 1.094zm0 0"/><path id="l" d="M26.532 4.874c.219.047 1.031.203 1.031.922 0 .5-.344.906-1.125.906-.844 0-1.203-.562-1.391-1.422-.031-.125-.031-.156-.141-.156-.125 0-.125.063-.125.234v1.328c0 .172 0 .234.109.234.047 0 .063-.016.25-.203.016-.016.016-.031.203-.219a1.53 1.53 0 0 0 1.094.422c1.141 0 1.609-.672 1.609-1.391 0-.516-.297-.828-.422-.937-.328-.328-.719-.406-1.141-.484-.562-.109-1.219-.234-1.219-.812 0-.359.25-.766 1.109-.766 1.094 0 1.156.906 1.172 1.203 0 .094.094.094.109.094.141 0 .141-.047.141-.234V2.578c0-.156 0-.234-.109-.234-.047 0-.078 0-.203.125l-.172.156c-.375-.281-.781-.281-.937-.281-1.219 0-1.594.672-1.594 1.234 0 .344.156.625.422.844.328.25.609.313 1.328.453zm0 0"/><path id="m" d="M42.377 6.187c0 .313 0 .766 1.031.766h.484c.188 0 .313 0 .313-.234s-.125-.234-.266-.234c-.609-.016-.609-.141-.609-.375V3.969c0-.891-.703-1.531-2.187-1.531-.562 0-1.781.047-1.781.922a.6.6 0 0 0 .609.625c.313 0 .641-.219.641-.625 0-.297-.187-.469-.219-.5.281-.047.594-.062.719-.062.734 0 1.094.422 1.094 1.172v.344c-.719.031-3.25.125-3.25 1.563 0 .953 1.25 1.141 1.938 1.141.797 0 1.266-.406 1.484-.828zm-.172-1.562v.938c0 .969-.922 1.094-1.172 1.094-.5 0-.906-.344-.906-.797 0-1.062 1.578-1.203 2.078-1.234zm0 0"/><path id="n" d="M49.628 2.469l-1.734.078v.469c.594 0 .656 0 .656.391v3.078h-.687v.469l1.219-.031 1.156.031v-.469h-.609zm.094-1.672c0-.437-.359-.766-.766-.766a.77.77 0 0 0-.781.766c0 .438.344.781.781.781a.78.78 0 0 0 .766-.781zm0 0"/><path id="o" d="M63.541 3v2.734c0 1.063.859 1.281 1.578 1.281.75 0 1.203-.578 1.203-1.297v-.531h-.469v.516c0 .672-.328.906-.609.906-.578 0-.578-.641-.578-.859V3h1.469v-.469h-1.469V.625h-.469c0 1-.484 1.984-1.484 2.016V3zm0 0"/><path id="p" d="M417.552 112.775v2.412c0 .937.758 1.13 1.392 1.13.661 0 1.061-.51 1.061-1.144v-.469h-.413v.455c0 .593-.289.799-.537.799-.51 0-.51-.565-.51-.758v-2.425h1.295v-.413h-1.295v-1.681h-.413c0 .882-.427 1.75-1.309 1.778v.317zm0 0"/><path id="q" d="M423.866 115.586c0 .276 0 .675.91.675h.427c.165 0 .276 0 .276-.207s-.11-.207-.234-.207c-.537-.014-.537-.124-.537-.331v-1.888c0-.785-.62-1.35-1.929-1.35-.496 0-1.571.041-1.571.813a.53.53 0 0 0 .537.551c.276 0 .565-.193.565-.551 0-.262-.165-.413-.193-.441.248-.041.524-.055.634-.055.648 0 .965.372.965 1.034v.303c-.634.028-2.866.11-2.866 1.378 0 .841 1.102 1.006 1.709 1.006.703 0 1.116-.358 1.309-.73zm-.152-1.378v.827c0 .854-.813.965-1.034.965-.441 0-.799-.303-.799-.703 0-.937 1.392-1.061 1.833-1.089zm0 0"/><path id="r" d="M431.384 112.306l-1.53.069v.413c.524 0 .579 0 .579.345v2.715h-.606v.413l1.075-.028 1.02.028v-.413h-.537zm.083-1.475c0-.386-.317-.675-.675-.675a.68.68 0 0 0-.689.675.68.68 0 0 0 .689.689.69.69 0 0 0 .675-.689zm0 0"/><path id="s" d="M454.314 110.156l-1.557.069v.413c.551 0 .606 0 .606.345v4.864h-.606v.413l1.075-.028 1.089.028v-.413h-.606zm0 0"/></defs><g class="C N"><path d="M497.485 48.915h-22.899c-.494 0-.987-.494-.987-.987V33.815c0-.494.494-.987.987-.987h22.899c.596 0 .987.494.987.987v14.112c0 .598-.494.987-.987.987z"/><path d="M497.881 32.828v16.086l12.437-7.994zm-.396 108.672h-22.899c-.494 0-.987-.494-.987-.987v-14.119c0-.494.494-.987.987-.987h22.899c.596 0 .987.494.987.987v14.119a.99.99 0 0 1-.987.987z"/><path d="M510.318 133.505l-12.437-8.098V141.5zM654.995 94.32h-22.899c-.598 0-.987-.395-.987-.987V79.215c0-.591.39-.987.987-.987h22.899a.99.99 0 0 1 .987.987v14.117a.99.99 0 0 1-.987.987z"/><path d="M667.925 86.32l-12.534-8.092V94.32zm-31.588 7.111l-26.256-26.257a.95.95 0 0 1 0-1.383l9.969-9.97c.396-.395.987-.395 1.383 0l26.256 26.258a.95.95 0 0 1 0 1.382l-9.969 9.97a.95.95 0 0 1-1.383 0z"/><path d="M645.618 94.613l-24.087 24.087a.95.95 0 0 1-1.383 0l-9.969-9.969a.95.95 0 0 1 0-1.383l23.99-24.185a.95.95 0 0 1 1.383 0l9.969 9.969c.494.494.494 1.085.097 1.481z"/></g><path d="M297.259 129.708h-75.022c-2.765 0-4.936-2.169-4.936-4.936V49.75c0-2.76 2.17-4.936 4.936-4.936h75.022a4.89 4.89 0 0 1 4.936 4.936v75.022c0 2.669-2.174 4.936-4.936 4.936z" class="B E"/><g stroke="#8080ff" class="F"><path d="M244.843 109.895c0 3.26 6.715 5.923 14.904 5.923 8.196 0 14.904-2.663 14.904-5.923V80.086c0 3.259-6.709 5.923-14.904 5.923-8.189 0-14.904-2.664-14.904-5.923z" class="G O"/><use xlink:href="#D" class="B I"/></g><g transform="matrix(.881945 0 0 .881945 238.21779 49.476256)"><path d="M2.484 3.906H4.25c1.391 0 2.547-.719 2.547-1.875C6.796.938 5.812.078 4.156.078H0v.469h1.078v5.906H0v.469c.375-.031 1.359-.031 1.781-.031l1.781.031v-.469H2.484zM3.765 3.5H2.437V.547h1.344c1.484 0 1.484.766 1.484 1.484 0 .703 0 1.469-1.5 1.469zm0 0"/><use xlink:href="#E"/><use xlink:href="#F"/><use xlink:href="#G"/><use xlink:href="#H"/><use xlink:href="#I"/><use xlink:href="#I" x="4.519"/><use xlink:href="#H" x="14.289"/><path d="M47.011 6.5v.484l1.813-.062v-.469c-.609 0-.687 0-.687-.391V0L46.37.078v.469c.625 0 .703 0 .703.391v1.953c-.5-.391-1.031-.453-1.359-.453-1.453 0-2.5.875-2.5 2.281 0 1.313.922 2.266 2.391 2.266.609 0 1.094-.234 1.406-.484zm0-3.094v2.484c-.141.188-.547.734-1.297.734-1.219 0-1.219-1.203-1.219-1.906 0-.484 0-1.016.25-1.406.297-.422.766-.516 1.078-.516.563 0 .969.313 1.188.609zm0 0"/></g><g transform="matrix(.881945 0 0 .881945 235.3443 59.825799)"><path d="M1.078.469v5.906H0v.469h4.297c1.969 0 3.453-1.219 3.453-3.359C7.75 1.297 6.265 0 4.281 0H0v.469zm1.359 5.906V.469H3.89c.656 0 1.484.188 1.969.891.344.516.422 1.188.422 2.109 0 1.094-.109 1.625-.437 2.063-.469.688-1.344.844-1.953.844zm11.364-1.703c0-1.344-.922-2.344-2.547-2.344-1.641 0-2.547 1.016-2.547 2.344 0 1.234.891 2.234 2.547 2.234 1.672 0 2.547-1.016 2.547-2.234zM11.254 6.5c-1.266 0-1.266-1.078-1.266-1.937 0-.453 0-.953.172-1.297.188-.375.609-.578 1.094-.578.422 0 .844.156 1.063.5.203.344.203.891.203 1.375 0 .859 0 1.938-1.266 1.938zm0 0"/><use xlink:href="#G" x="-3.764" y="-0.078"/><path d="M23.893 6.125v.781l1.766-.062v-.469c-.609 0-.687 0-.687-.391V2.36l-1.812.078v.469c.609 0 .688 0 .688.391v1.906c0 .813-.516 1.344-1.234 1.344-.781 0-.812-.25-.812-.797V2.36l-1.812.078v.469c.609 0 .688 0 .688.391v2.328c0 1.063.797 1.281 1.797 1.281.25 0 .969 0 1.422-.781zm3.147-2.828v3.078h-.687v.469l1.25-.031 1.25.031v-.469h-.687V4.297a1.52 1.52 0 0 1 1.5-1.578c.328 0 .547.203.547.969v2.688h-.687v.469l1.266-.031 1.25.031v-.469h-.687V4.297c0-1.094.859-1.578 1.484-1.578.344 0 .563.203.563.969v2.688h-.687v.469l1.25-.031 1.266.031v-.469h-.687V3.797c0-1.031-.516-1.437-1.547-1.437a1.87 1.87 0 0 0-1.687.953c-.187-.922-1.109-.953-1.484-.953a1.89 1.89 0 0 0-1.766 1.078V2.36l-1.703.078v.469c.609 0 .688 0 .688.391zm0 0"/><use xlink:href="#H" x="12.148" y="-0.078"/><path d="M41.839 3.297v3.078h-.687v.469l1.25-.031 1.25.031v-.469h-.687V4.297a1.51 1.51 0 0 1 1.5-1.578c.328 0 .547.203.547.969v2.688h-.687v.469l1.25-.031 1.25.031v-.469h-.687V3.797c0-1.047-.531-1.437-1.531-1.437-.953 0-1.484.563-1.75 1.078V2.36l-1.703.078v.469c.609 0 .688 0 .688.391zm5.936-.406v2.734c0 1.063.859 1.281 1.578 1.281.75 0 1.203-.578 1.203-1.297v-.531h-.469v.516c0 .672-.328.906-.609.906-.578 0-.578-.641-.578-.859v-2.75h1.469v-.469H48.9V.516h-.469c0 1-.484 1.984-1.484 2.016v.359zm0 0"/><use xlink:href="#J"/></g><path d="M403.832 11.828v52.221h49.748V19.427l-7.6-7.6zm42.245 0h7.502l.103 7.6z" class="B"/><path d="M401.173 14.512v52.216h49.748V22.111l-7.598-7.6zm42.247 0h7.404l.2 7.6z" class="H"/><path d="M397.57 17.694v52.221h49.748V25.294l-7.6-7.6zm42.247 0l7.604-.097-.103 7.598z" class="G"/><g transform="matrix(.881945 0 0 .881945 402.13707 25.074912)"><use xlink:href="#K"/><use xlink:href="#L"/><use xlink:href="#M"/><use xlink:href="#N"/><use xlink:href="#L" x="17.981"/><use xlink:href="#O"/><use xlink:href="#O" x="3.182"/><use xlink:href="#P"/></g><g transform="matrix(.881945 0 0 .881945 403.25207 36.669503)"><path d="M3.359 2.828l-1.437-.312c-.406-.094-.953-.422-.953-1.031 0-.437.281-1.047 1.266-1.047.797 0 1.813.328 2.047 1.688.031.25.031.266.234.266.25 0 .25-.047.25-.281V.281c0-.187 0-.281-.187-.281C4.5 0 4.5.015 4.39.109l-.453.438C3.359.094 2.703 0 2.234 0 .718 0 0 .969 0 2.015c0 .641.328 1.094.531 1.313.5.5.828.563 1.922.797.875.203 1.047.219 1.266.438.141.141.391.406.391.859 0 .484-.25 1.172-1.297 1.172-.75 0-2.266-.203-2.344-1.687-.016-.172-.016-.219-.234-.219C0 4.687 0 4.734 0 4.969v1.813c0 .188 0 .281.172.281.094 0 .109-.016.188-.094l.469-.453c.656.484 1.578.547 1.984.547 1.656 0 2.266-1.125 2.266-2.141 0-1.094-.797-1.906-1.719-2.094zm0 0"/><use xlink:href="#G" x="-12.482" y="0.031"/><use xlink:href="#Q"/><use xlink:href="#H" x="-7.764" y="0.031"/><use xlink:href="#H" x="-2.512" y="0.031"/><use xlink:href="#R"/><use xlink:href="#H" x="9.104" y="0.031"/><use xlink:href="#S"/></g><path d="M597.839 151.32h-75.022c-2.76 0-4.936-2.17-4.936-4.936v-25.862c0-2.765 2.176-4.936 4.936-4.936h75.022c2.767 0 4.936 2.17 4.936 4.936v25.862c0 2.765-2.266 4.936-4.936 4.936z" class="B E"/><g transform="matrix(.881945 0 0 .881945 536.90189 125.08194)"><use xlink:href="#T"/><use xlink:href="#L" x="-2.268"/><use xlink:href="#M" x="-2.268"/><path d="M22.277 4.563V0l-1.766.078v.469c.609 0 .688 0 .688.391v5.516h-.687v.469l1.188-.031 1.203.031v-.469h-.687V5.188l.578-.422 1 1.25.25.344c0 .094-.172.094-.312.094v.469l1.219-.031 1.047.031v-.469h-.172c-.437 0-.469-.047-.594-.203l-1.687-2.094 1.297-1.016c.141-.109.234-.172.906-.172V2.5c-.281.031-.531.031-.781.031-.266 0-.922-.031-1.156-.031v.469c.234 0 .266.031.344.109zm0 0"/><use xlink:href="#H" x="2.565"/><use xlink:href="#U"/><use xlink:href="#V"/><use xlink:href="#P" x="6.958"/></g><g transform="matrix(.881945 0 0 .881945 538.61303 137.24404)"><use xlink:href="#T"/><use xlink:href="#H" x="-15.096"/><use xlink:href="#O" x="-20.567"/><use xlink:href="#H" x="-6.663"/><use xlink:href="#W"/><use xlink:href="#L" x="16.825"/><use xlink:href="#M" x="16.825"/><use xlink:href="#G" x="21.023"/><use xlink:href="#H" x="21.023"/></g><path d="M755.858 129.708h-75.022c-2.761 0-4.936-2.17-4.936-4.936V49.75c0-2.767 2.174-4.936 4.936-4.936h75.022c2.765 0 4.936 2.169 4.936 4.936v75.022c0 2.663-2.17 4.936-4.936 4.936z" class="B E"/><g transform="matrix(.881945 0 0 .881945 684.20783 49.407684)"><path d="M2.437 3.437V.656h1.172c1.609 0 1.625.781 1.625 1.391 0 .563 0 1.391-1.641 1.391zm2.656.203C6.25 3.343 6.75 2.687 6.75 2.031c0-1-1.094-1.844-2.969-1.844H0v.469h1.078v5.906H0v.469C.359 7 1.328 7 1.75 7l1.75.031v-.469H2.437V3.797h1.156c.141 0 .578 0 .891.328.313.359.313.547.313 1.266 0 .656 0 1.156.703 1.484.438.219 1.063.266 1.469.266 1.063 0 1.188-.891 1.188-1.062 0-.219-.141-.219-.234-.219-.203 0-.219.109-.234.234-.047.469-.328.688-.625.688-.609 0-.687-.703-.75-1.125l-.109-.844c-.141-.703-.687-1.016-1.109-1.172zm0 0"/><use xlink:href="#H" x="-15.096" y="0.109"/><use xlink:href="#I" x="-15.096" y="0.109"/><path d="M22.331 6.312v.781l1.766-.062v-.469c-.609 0-.687 0-.687-.391V2.547l-1.812.078v.469c.609 0 .688 0 .688.391V5.39c0 .813-.516 1.344-1.234 1.344-.781 0-.812-.25-.812-.797v-3.39l-1.812.078v.469c.609 0 .688 0 .688.391v2.328c0 1.063.797 1.281 1.797 1.281.25 0 .969 0 1.422-.781zm4.24-6.203l-1.766.078v.469c.625 0 .688 0 .688.391v5.516h-.687v.469L26.024 7l1.234.031v-.469h-.687zm0 0"/><use xlink:href="#X"/><use xlink:href="#I" x="3.425" y="0.109"/><path d="M43.356 2.89c-.125-.281-.297-.875-.297-1.484 0-.828.516-1.047.766-1.047.484 0 .625.656.625.953 0 .438-.437.984-1.094 1.578zm.141.359c.141-.109.594-.531.875-.844.25-.297.547-.703.547-1.094C44.918.781 44.59 0 43.825 0c-.828 0-1.797.625-1.797 1.766 0 .594.125 1.234.422 1.922l-.734.625-.625.547c-.203.25-.297.516-.297.797 0 .922.969 1.484 2.063 1.484.719 0 1.375-.234 1.984-.625.281.156 1.078.625 2.109.625.813 0 1.594-.453 1.625-1.281h-.469c-.047.75-.922.813-1.109.813-.469 0-.953-.297-1.406-.734.453-.469.781-.812 1.234-1.484l.828-1.187c.141-.187.469-.187.984-.187v-.469l-.984.031c-.109 0-.937-.016-1.219-.031v.469c.219 0 .5 0 .734.094-.562.875-1.156 1.734-1.906 2.453-.625-.656-1.375-1.531-1.766-2.375zm-.891.766c.359.656.938 1.547 1.844 2.219-.687.438-1.406.438-1.469.438-.828 0-.922-1.094-.922-1.375 0-.469.141-.984.547-1.281zM54.514.656v5.906h-1.078v.469h4.297c1.969 0 3.453-1.219 3.453-3.359 0-2.187-1.484-3.484-3.469-3.484h-4.281v.469zm1.359 5.906V.656h1.453c.656 0 1.484.188 1.969.891.344.516.422 1.188.422 2.109 0 1.094-.109 1.625-.437 2.063-.469.688-1.344.844-1.953.844zm0 0"/><use xlink:href="#Y"/><use xlink:href="#X" x="39.882"/><use xlink:href="#Y" x="10.025"/></g><path d="M696.553 63.004v52.221h49.753V70.608l-7.598-7.604zm42.252 0h7.501l.097 7.604z" class="B"/><path d="M693.896 65.688v52.221h49.752V73.288l-7.598-7.6zm42.251 0h7.404l.196 7.6z" class="H"/><path d="M690.291 68.871v52.221h49.753V76.475l-7.598-7.605zm42.252 0l7.598-.097-.097 7.604z" class="G"/><g transform="matrix(.881945 0 0 .881945 694.92968 78.603956)"><use xlink:href="#Z"/><path d="M10.59 4.469l1.156-1.297c.141-.141.203-.203 1.016-.203V2.5l-.906.031c-.25 0-.75-.031-1.031-.031v.469c.141 0 .266.016.375.078-.031.063-.031.094-.078.125l-.828.938-.984-1.141h.406V2.5l-1.219.031c-.312 0-.766-.031-1.094-.031v.469h.719l1.547 1.828-1.312 1.469c-.156.188-.516.188-1 .188v.469l.922-.031 1.016.031v-.469c-.172 0-.359-.047-.359-.109 0-.016 0-.016.063-.094l.969-1.094 1.094 1.297h-.391v.469l1.203-.031 1.094.031v-.469h-.703zm4.78-.828c0-.187.016-.203.156-.344a1.64 1.64 0 0 1 1.141-.469c.656 0 1.219.609 1.219 1.875 0 1.406-.703 1.922-1.344 1.922-.141 0-.609 0-1.062-.547-.109-.125-.109-.141-.109-.328zm0 2.891a2.01 2.01 0 0 0 1.281.453c1.5 0 2.516-.906 2.516-2.281 0-1.328-.906-2.266-2.344-2.266-.75 0-1.281.313-1.5.484v-.484l-1.766.078v.469c.609 0 .688 0 .688.375v5.031h-.687v.469l1.25-.031 1.25.031v-.469h-.687zm0 0"/><use xlink:href="#F" x="7.708"/><use xlink:href="#E" x="18.154"/><path d="M31.345 2.969v2.734c0 1.063.859 1.281 1.578 1.281.75 0 1.203-.578 1.203-1.297v-.531h-.469v.516c0 .672-.328.906-.609.906-.578 0-.578-.641-.578-.859v-2.75h1.469V2.5H32.47V.594h-.469c0 1-.484 1.984-1.484 2.016v.359zm0 0"/><use xlink:href="#H" x="11.471"/><use xlink:href="#U" x="8.905"/></g><g class="B"><path d="M96.435 129.708H21.413c-2.765 0-4.936-2.169-4.936-4.936V49.75c0-2.76 2.17-4.936 4.936-4.936h75.022a4.89 4.89 0 0 1 4.936 4.936v75.022c0 2.669-2.174 4.936-4.936 4.936z" class="E"/><use xlink:href="#D" x="-197.764" y="4.181" stroke="#7b7bfa" class="F I"/></g><g stroke="#9f9fff" class="F"><path d="M40.959 107.945c0 3.26 6.715 5.923 14.904 5.923 8.196 0 14.904-2.663 14.904-5.923V78.137c0 3.259-6.709 5.923-14.904 5.923-8.189 0-14.904-2.664-14.904-5.923z" class="H O"/><use xlink:href="#D" x="-203.884" y="-1.949" class="B I"/></g><g stroke="#7b7bfa" class="F"><path d="M47.082 114.07c0 3.26 6.715 5.923 14.904 5.923 8.196 0 14.904-2.663 14.904-5.923V84.261c0 3.259-6.709 5.923-14.904 5.923-8.189 0-14.904-2.664-14.904-5.923z" fill="#7b7bfa" class="O"/><use xlink:href="#D" x="-197.761" y="4.175" class="B I"/></g><g transform="matrix(.881945 0 0 .881945 32.312954 49.290437)"><path d="M17.335 3.828h1.766c1.391 0 2.547-.719 2.547-1.875C21.647.86 20.663 0 19.007 0h-4.156v.469h1.078v5.906h-1.078v.469c.375-.031 1.359-.031 1.781-.031l1.781.031v-.469h-1.078zm1.281-.406h-1.328V.469h1.344c1.484 0 1.484.766 1.484 1.484 0 .703 0 1.469-1.5 1.469zm7.091 2.656c0 .313 0 .766 1.031.766h.484c.188 0 .313 0 .313-.234s-.125-.234-.266-.234c-.609-.016-.609-.141-.609-.375V3.86c0-.891-.703-1.531-2.187-1.531-.562 0-1.781.047-1.781.922a.6.6 0 0 0 .609.625c.313 0 .641-.219.641-.625 0-.297-.187-.469-.219-.5a5.06 5.06 0 0 1 .719-.062c.734 0 1.094.422 1.094 1.172v.344c-.719.031-3.25.125-3.25 1.563 0 .953 1.25 1.141 1.938 1.141.797 0 1.266-.406 1.484-.828zm-.172-1.562v.938c0 .969-.922 1.094-1.172 1.094-.5 0-.906-.344-.906-.797 0-1.062 1.578-1.203 2.078-1.234zm4.195-.953c0-.187.016-.203.156-.344a1.64 1.64 0 0 1 1.141-.469c.656 0 1.219.609 1.219 1.875 0 1.406-.703 1.922-1.344 1.922-.141 0-.609 0-1.062-.547-.109-.125-.109-.141-.109-.328zm0 2.891a2.01 2.01 0 0 0 1.281.453c1.5 0 2.516-.906 2.516-2.281 0-1.328-.906-2.266-2.344-2.266-.75 0-1.281.313-1.5.484V2.36l-1.766.078v.469c.609 0 .688 0 .688.375v5.031h-.687v.469l1.25-.031 1.25.031v-.469h-.687zm0 0"/><use xlink:href="#H" x="10.928" y="-0.078"/><path d="M41.508 3.485V2.36l-1.656.078v.469c.609 0 .688 0 .688.391v3.078h-.687v.469l1.25-.031 1.375.031v-.469h-.859v-1.75c0-.687.234-1.906 1.234-1.906 0 .016-.187.172-.187.453 0 .406.328.609.609.609.297 0 .609-.203.609-.609 0-.531-.531-.812-1.062-.812-.687 0-1.094.5-1.312 1.125zm0 0"/><use xlink:href="#J" x="-7.004"/><path d="M2.563 14.658c-.125-.281-.297-.875-.297-1.484 0-.828.516-1.047.766-1.047.484 0 .625.656.625.953 0 .438-.437.984-1.094 1.578zm.141.359c.141-.109.594-.531.875-.844.25-.297.547-.703.547-1.094 0-.531-.328-1.312-1.094-1.312-.828 0-1.797.625-1.797 1.766 0 .594.125 1.234.422 1.922l-.734.625-.625.547c-.203.25-.297.516-.297.797 0 .922.969 1.484 2.063 1.484.719 0 1.375-.234 1.984-.625.281.156 1.078.625 2.109.625.813 0 1.594-.453 1.625-1.281h-.469c-.047.75-.922.813-1.109.813-.469 0-.953-.297-1.406-.734.453-.469.781-.812 1.234-1.484l.828-1.187c.141-.187.469-.187.984-.187v-.469l-.984.031c-.109 0-.937-.016-1.219-.031v.469c.219 0 .5 0 .734.094-.562.875-1.156 1.734-1.906 2.453-.625-.656-1.375-1.531-1.766-2.375zm-.891.766c.359.656.938 1.547 1.844 2.219-.687.438-1.406.438-1.469.438-.828 0-.922-1.094-.922-1.375 0-.469.141-.984.547-1.281zm15.866 1.703l-2.391-5.281c-.109-.25-.219-.25-.437-.25h-2.203v.469h1.063v5.625c0 .219 0 .219-.281.25-.234.031-.266.031-.547.031h-.234v.469c.375-.031.938-.031 1.328-.031l1.344.031v-.469h-.25c-.172 0-.344-.016-.531-.031-.281-.031-.297-.031-.297-.25v-5.484h.016l2.703 5.984c.094.203.219.25.328.25.203 0 .281-.156.313-.234l2.781-6.141h.016v5.906h-1.08v.469c.359-.031 1.281-.031 1.688-.031l1.719.031v-.469h-1.078v-5.906h1.078v-.469h-2.203c-.219 0-.344 0-.453.25zm0 0"/><use xlink:href="#H" x="-0.18" y="11.877"/><use xlink:href="#a"/><use xlink:href="#b"/><path d="M42.566 18.377v.484l1.813-.062v-.469c-.609 0-.687 0-.687-.391v-6.062l-1.766.078v.469c.625 0 .703 0 .703.391v1.953c-.5-.391-1.031-.453-1.359-.453-1.453 0-2.5.875-2.5 2.281 0 1.313.922 2.266 2.391 2.266.609 0 1.094-.234 1.406-.484zm0-3.094v2.484c-.141.188-.547.734-1.297.734-1.219 0-1.219-1.203-1.219-1.906 0-.484 0-1.016.25-1.406.297-.422.766-.516 1.078-.516.563 0 .969.313 1.188.609zm0 0"/><use xlink:href="#b" x="11.934"/><use xlink:href="#a" x="21.958"/><use xlink:href="#b" x="21.959"/></g><g transform="matrix(.881945 0 0 .881945 -111.99778 22.826395)"><use xlink:href="#c"/><use xlink:href="#d"/><use xlink:href="#e"/><path d="M164.611 131.343v2.672c0 .438-.109.438-.781.438v.313l1.141-.031 1.109.031v-.312c-.672 0-.781 0-.781-.437v-1.844c0-1.031.719-1.594 1.344-1.594.641 0 .75.531.75 1.109v2.328c0 .438-.109.438-.781.438v.313l1.125-.031 1.109.031v-.312c-.656 0-.766 0-.766-.437v-1.844c0-1.031.703-1.594 1.344-1.594.625 0 .734.531.734 1.109v2.328c0 .438-.109.438-.781.438v.313l1.125-.031 1.125.031v-.312c-.516 0-.766 0-.781-.297v-1.906c0-.859 0-1.156-.312-1.516-.141-.172-.469-.375-1.047-.375-.828 0-1.281.594-1.437.984-.141-.875-.875-.984-1.328-.984-.734 0-1.203.422-1.484 1.047v-1.047l-1.406.109v.313c.703 0 .781.063.781.563zm0 0"/><use xlink:href="#f"/><path d="M180.028 134.218v.656l1.469-.109v-.312c-.687 0-.781-.062-.781-.562v-6.047l-1.422.109v.313c.688 0 .766.063.766.563v2.156c-.281-.359-.719-.625-1.25-.625-1.172 0-2.219.984-2.219 2.266 0 1.266.969 2.25 2.109 2.25.641 0 1.078-.344 1.328-.656zm0-2.672v2.047c0 .172 0 .188-.109.359-.297.484-.734.703-1.172.703-.453 0-.812-.266-1.047-.641-.25-.406-.281-.969-.281-1.391 0-.359.016-.953.297-1.406.219-.312.594-.641 1.141-.641.344 0 .766.156 1.063.594.109.172.109.188.109.375zm0 0"/><use xlink:href="#d" x="26.013"/><use xlink:href="#g"/><use xlink:href="#h"/><use xlink:href="#i"/><path d="M202.277 131.249v-2.578c0-.234 0-.359.219-.391.094-.016.391-.016.594-.016.891 0 2 .047 2 1.484 0 .688-.234 1.5-1.703 1.5zm2.109.125c.953-.234 1.734-.844 1.734-1.625 0-.953-1.141-1.797-2.594-1.797h-3.141v.313h.25c.766 0 .781.109.781.469v5.25c0 .359-.016.469-.781.469h-.25v.313c.359-.031 1.078-.031 1.453-.031l1.469.031v-.312h-.25c-.766 0-.781-.109-.781-.469v-2.516h1.141c.156 0 .578 0 .938.344.375.344.375.656.375 1.328 0 .641 0 1.047.406 1.422.406.359.953.422 1.25.422.781 0 .953-.812.953-1.094 0-.062 0-.172-.125-.172-.109 0-.109.094-.125.156-.062.719-.406.891-.656.891-.484 0-.562-.516-.703-1.437l-.141-.797c-.172-.641-.656-.969-1.203-1.156zm0 0"/><use xlink:href="#f" x="35.558"/><use xlink:href="#j"/><use xlink:href="#f" x="43.924"/><use xlink:href="#h" x="31.194"/><use xlink:href="#k"/><use xlink:href="#g" x="44.505"/><path d="M234.297 134.015c0 .438-.109.438-.781.438v.313l1.141-.031 1.109.031v-.312c-.672 0-.781 0-.781-.437v-1.844c0-1.031.719-1.594 1.344-1.594.641 0 .75.531.75 1.109v2.328c0 .438-.109.438-.781.438v.313l1.125-.031 1.109.031v-.312c-.516 0-.766 0-.766-.297v-1.906c0-.859 0-1.156-.312-1.516-.141-.172-.469-.375-1.047-.375-.844 0-1.281.594-1.453.984v-3.5l-1.437.109v.313c.703 0 .781.063.781.563zm0 0"/></g><g transform="matrix(.881945 0 0 .881945 110.33378 22.874625)"><path d="M154.509 132.187h-.25c-.109 1.016-.25 2.266-2 2.266h-.812c-.469 0-.484-.062-.484-.391v-5.312c0-.344 0-.484.938-.484h.328v-.312c-.359.031-1.266.031-1.672.031-.391 0-1.172 0-1.516-.031v.313h.234c.766 0 .797.109.797.469v5.25c0 .359-.031.469-.797.469h-.234v.313h5.188zm0 0"/><use xlink:href="#e" x="-3.597"/><use xlink:href="#g" x="-24.35"/><use xlink:href="#h" x="-24.351"/><use xlink:href="#i" x="-24.35"/><path d="M176.037 127.952v.313h.25c.766 0 .781.109.781.469v5.25c0 .359-.016.469-.781.469h-.25v.313h3.656c1.672 0 3.047-1.469 3.047-3.344 0-1.906-1.344-3.469-3.047-3.469zm2.375 6.5c-.469 0-.484-.062-.484-.391v-5.391c0-.344.016-.406.484-.406h1c.625 0 1.313.219 1.813.922.438.594.516 1.453.516 2.234 0 1.094-.187 1.703-.547 2.188-.203.266-.766.844-1.766.844zm0 0"/><use xlink:href="#c" x="34.591"/></g><g transform="matrix(.881945 0 0 .881945 561.7459 22.826395)"><path d="M157.775 128.937c.172-.578.609-.672 1-.672v-.312c-.297.031-.609.031-.906.031a27.89 27.89 0 0 1-1.187-.031v.313c.672.016.859.344.859.531 0 .063-.031.141-.047.203l-1.5 4.594-1.594-4.875c0-.047-.031-.109-.031-.156 0-.297.578-.297.844-.297v-.312c-.359.031-1.031.031-1.422.031-.375 0-.797-.016-1.203-.031v.313c.563 0 .766 0 .891.359l.219.703-1.391 4.266-1.594-4.906c-.016-.016-.031-.094-.031-.125 0-.297.578-.297.844-.297v-.312c-.359.031-1.031.031-1.422.031-.375 0-.797-.016-1.219-.031v.313c.75 0 .797.047.922.422l1.984 6.109c.031.094.063.188.188.188.141 0 .156-.062.203-.203l1.641-5.062 1.656 5.078c.031.094.063.188.188.188.141 0 .172-.062.203-.203zm0 0"/><use xlink:href="#f" x="-13.694"/><path d="M164.271 130.999v-3.156l-1.437.109v.313c.703 0 .781.063.781.563v5.938h.25c0-.016.078-.156.359-.625.141.234.563.734 1.297.734 1.188 0 2.219-.984 2.219-2.266 0-1.266-.969-2.25-2.109-2.25-.781 0-1.203.469-1.359.641zm.031 2.625v-2.047c0-.187 0-.203.109-.359.391-.562.938-.641 1.172-.641.453 0 .813.266 1.047.641.266.406.281.969.281 1.391 0 .359-.016.953-.297 1.406-.219.313-.594.641-1.125.641-.453 0-.812-.234-1.047-.609-.141-.203-.141-.234-.141-.422zm0 0"/><use xlink:href="#c" x="22.693"/><use xlink:href="#k" x="-46.691"/><use xlink:href="#e" x="23.828"/><path d="M193.238 131.421c.172-.5.484-.641.844-.641v-.312l-.734.031c-.297 0-.734-.016-.922-.031v.313c.359 0 .578.188.578.469 0 .063 0 .094-.062.219l-.906 2.547-.984-2.781c-.031-.125-.047-.141-.047-.187 0-.266.391-.266.594-.266v-.312l-1.047.031c-.297 0-.578-.016-.875-.031v.313c.359 0 .516.016.625.141.047.063.156.359.219.547l-.844 2.422-.953-2.656c-.047-.125-.047-.141-.047-.187 0-.266.391-.266.578-.266v-.312l-1.078.031a52.82 52.82 0 0 1-.937-.031v.313c.5 0 .625.031.75.344l1.25 3.531c.047.141.078.219.203.219.141 0 .156-.062.203-.203l1.016-2.812 1.016 2.828c.031.109.063.188.203.188.125 0 .156-.094.188-.187zm0 0"/><use xlink:href="#j" x="-17.543"/><use xlink:href="#f" x="26.371"/><use xlink:href="#k" x="-22.534"/></g><g class="C N"><path d="M374.947 48.809l11.449 11.352 3.156-14.508zm11.45 65.547l-11.449 11.352 14.606 3.161z"/><path d="M386.098 60.46l-29.614 29.614a.95.95 0 0 1-1.383 0l-9.969-9.969a.95.95 0 0 1 0-1.383l29.614-29.614a.95.95 0 0 1 1.383 0l9.969 9.969c.396.396.396 1.085 0 1.383z"/><path d="M374.649 125.416l-29.614-29.614a.95.95 0 0 1 0-1.383l9.969-9.97c.396-.395.987-.395 1.383 0l29.614 29.614c.396.391.396.987 0 1.378l-9.969 9.975c-.299.39-.987.39-1.383 0z"/><path d="M354.218 95.406h-41.661a.93.93 0 0 1-.987-.987V80.3a.93.93 0 0 1 .987-.987h41.661a.99.99 0 0 1 .987.987v14.119a.99.99 0 0 1-.987.987z"/></g><path d="M2.921 3.156L1.64 2.859c-.625-.156-1-.687-1-1.266A1.29 1.29 0 0 1 1.953.281c1.656 0 1.875 1.641 1.938 2.078.016.063.016.125.125.125.125 0 .125-.047.125-.234v-2c0-.172 0-.25-.109-.25-.062 0-.078.016-.141.141l-.359.563C3.234.406 2.828 0 1.937 0 .828 0-.001.875-.001 1.937a1.94 1.94 0 0 0 1.297 1.828l1.328.328c.266.063.563.141.844.5a1.53 1.53 0 0 1 .313.922c0 .703-.5 1.422-1.344 1.422-.281 0-1.047-.047-1.578-.531-.578-.547-.61-1.172-.61-1.531-.015-.11-.093-.11-.125-.11-.125 0-.125.078-.125.25v2c0 .172 0 .234.109.234.063 0 .078-.016.141-.125 0-.016.031-.047.359-.578.313.344.953.703 1.844.703 1.156 0 1.953-.969 1.953-2.078 0-.984-.656-1.812-1.484-2.016zm3.77.125v-.656l-1.437.109v.313c.703 0 .781.063.781.5v4.656c0 .453-.109.453-.781.453v.313l1.109-.031 1.125.031v-.312c-.656 0-.766 0-.766-.453V6.437c.047.172.469.703 1.219.703 1.188 0 2.219-.984 2.219-2.266 0-1.266-.953-2.25-2.078-2.25-.781 0-1.203.438-1.391.656zm.031 2.609V3.672c.281-.516.766-.797 1.281-.797.734 0 1.328.875 1.328 2 0 1.203-.687 2.047-1.422 2.047-.406 0-.781-.203-1.047-.609-.141-.203-.141-.219-.141-.422zM12.273.109l-1.437.109v.313c.703 0 .781.063.781.563v5.188c0 .438-.109.438-.781.438v.313L11.945 7l1.109.031v-.312c-.672 0-.781 0-.781-.437zm2.768 2.516l-1.391.109v.313c.641 0 .734.063.734.547v2.688c0 .438-.109.438-.781.438v.313L14.697 7l1.047.031v-.312c-.672 0-.703-.047-.703-.437zM15.072.89c0-.312-.234-.531-.516-.531-.312 0-.531.266-.531.531s.219.531.531.531c.281 0 .516-.219.516-.531zm2.69 2.157H19.2v-.312h-1.437V.906h-.25c0 .813-.297 1.875-1.281 1.922v.219h.844v2.75c0 1.219.938 1.344 1.297 1.344.703 0 .984-.703.984-1.344v-.562h-.25v.547c0 .734-.297 1.109-.672 1.109-.672 0-.672-.906-.672-1.078zm0 0" transform="matrix(.881945 0 0 .881945 324.85196 83.404382)"/><path d="M133.289 155.046v-17.867h59.326v38.103c-8.191-3.158-21.418-3.158-29.614 0-8.191 3.161-21.418 3.161-29.614 0z" class="B"/><path d="M131.274 157.076v-17.768H190.6v38.005c-8.196-3.158-21.425-3.158-29.614 0-8.196 3.156-21.425 3.156-29.614 0z" class="H"/><path d="M129.252 159.164v-17.872h59.332V179.4c-8.196-3.163-21.425-3.163-29.614 0-8.196 3.156-21.425 3.156-29.614 0z" class="G"/><path d="M2.609.141C2.5.016 2.484 0 2.281 0H0v.469h1.078v5.625c0 .219-.016.219-.297.25-.234.031-.25.031-.531.031H0v.469c.375-.031.938-.031 1.328-.031l1.359.031v-.469h-.25c-.187 0-.359-.016-.531-.031-.297-.031-.297-.031-.297-.25V.875l4.953 5.844c.109.109.109.125.281.125.266 0 .266-.094.266-.312V.766c0-.219 0-.234.281-.266.25-.031.266-.031.547-.031h.25V0c-.391.031-.953.031-1.344.031-.422 0-.937 0-1.344-.031v.469h.25c.172 0 .344.016.531.031.281.031.297.047.297.266v4.031zM14.981 4.11h-.469c-.078.688-.25 2.266-2.031 2.266H11.45V.469h1.359V0c-.453.031-1.531.031-2.016.031-.437 0-1.453 0-1.828-.031v.469h1.078v5.906H8.966v.469h5.703zm3.36-.282h1.766c1.391 0 2.547-.719 2.547-1.875C22.653.86 21.669 0 20.013 0h-4.156v.469h1.078v5.906h-1.078v.469c.375-.031 1.359-.031 1.781-.031l1.781.031v-.469h-1.078zm1.281-.406h-1.328V.469h1.344c1.484 0 1.484.766 1.484 1.484 0 .703 0 1.469-1.5 1.469zm0 0" transform="matrix(.881945 0 0 .881945 149.3392 148.65968)"/><g transform="matrix(.881945 0 0 .881945 140.88631 160.14705)"><use xlink:href="#K"/><use xlink:href="#F" x="-1.689"/><use xlink:href="#U" x="-14.598"/><use xlink:href="#N" x="0.797"/><use xlink:href="#O" x="-4.772"/><use xlink:href="#H" x="9.132"/><use xlink:href="#I" x="9.132"/></g><g class="C N"><path d="M197.555 95.307h-85.186c-.598 0-.987-.395-.987-.987V80.203c0-.591.39-.987.987-.987h85.186a.93.93 0 0 1 .987.987V94.32a.93.93 0 0 1-.987.987z"/><path d="M210.485 87.308l-12.437-8.092v16.092z"/></g><g transform="matrix(.881945 0 0 .881945 146.83286 84.209614)"><path d="M1.922 3.656H3.61c1.188 0 2.266-.797 2.266-1.797C5.876.875 4.892 0 3.532 0H0v.313h.25c.766 0 .781.109.781.469v5.25c0 .359-.016.469-.781.469H0v.313c.359-.031 1.094-.031 1.469-.031l1.484.031v-.312h-.25c-.766 0-.781-.109-.781-.469zm-.031-.25V.718c0-.344.016-.406.484-.406h.891c1.578 0 1.578 1.063 1.578 1.547 0 .469 0 1.547-1.578 1.547zm6.218.093V2.406l-1.391.109v.313c.703 0 .781.063.781.563v2.672c0 .438-.109.438-.781.438v.313l1.141-.031 1.266.031v-.312h-.219c-.734 0-.75-.109-.75-.469V4.499c0-.984.422-1.875 1.172-1.875.063 0 .094 0 .109.016-.031 0-.234.125-.234.391s.219.422.438.422a.42.42 0 0 0 .422-.437c0-.312-.312-.609-.734-.609-.734 0-1.094.672-1.219 1.094zm0 0"/><use xlink:href="#e" x="-148.198" y="-127.953"/><use xlink:href="#g" x="-168.95" y="-127.953"/><use xlink:href="#f" x="-151.792" y="-127.953"/><use xlink:href="#l"/><use xlink:href="#l" x="3.929"/></g><path d="M160.787 141.306l.124-43.22" fill="none" marker-end="url(#B)" class="D"/><path d="M597.839 58.738h-75.022c-2.76 0-4.936-2.17-4.936-4.936V27.941c0-2.765 2.176-4.936 4.936-4.936h75.022c2.767 0 4.936 2.17 4.936 4.936v25.862c0 2.663-2.169 4.936-4.936 4.936z" class="B E"/><g transform="matrix(.881945 0 0 .881945 531.68432 31.594452)"><use xlink:href="#Z"/><use xlink:href="#W" x="-14.749"/><use xlink:href="#L" x="2.075"/><use xlink:href="#O" x="-15.905"/><use xlink:href="#N" x="-0.789"/><use xlink:href="#L" x="17.192"/><path d="M34.262 2.969v2.734c0 1.063.859 1.281 1.578 1.281.75 0 1.203-.578 1.203-1.297v-.531h-.469v.516c0 .672-.328.906-.609.906-.578 0-.578-.641-.578-.859v-2.75h1.469V2.5h-1.469V.594h-.469c0 1-.484 1.984-1.484 2.016v.359zm0 0"/><use xlink:href="#H" x="14.388"/><use xlink:href="#U" x="11.822"/><use xlink:href="#V" x="11.832"/><use xlink:href="#P" x="18.79"/></g><g transform="matrix(.881945 0 0 .881945 524.16761 43.920205)"><path d="M7 .281C7 .094 7 0 6.812 0c-.094 0-.109.031-.187.094l-.656.594A3.03 3.03 0 0 0 4 0C1.515 0 0 1.484 0 3.531s1.516 3.531 4 3.531c1.875 0 3-1.219 3-2.375 0-.203-.078-.203-.25-.203-.125 0-.219 0-.219.172C6.453 5.984 5.25 6.594 4.25 6.594c-.781 0-1.625-.234-2.141-.844-.469-.578-.594-1.312-.594-2.219 0-.562.031-1.625.672-2.297C2.828.578 3.703.469 4.218.469c1.078 0 2.016.766 2.234 2.031.031.188.047.203.266.203.266 0 .281-.016.281-.281zm0 0"/><use xlink:href="#Q" x="-3.182"/><use xlink:href="#F" x="0.193" y="0.031"/><use xlink:href="#I" x="-10.468" y="0.031"/><use xlink:href="#I" x="-5.949" y="0.031"/><path d="M30.291 5.219V4.25h-3.047v.969zM38.312.797c.063-.125.109-.219.828-.219h.188V.109L38.203.14c-.391 0-.922 0-1.297-.031v.469c.078 0 .875 0 .875.125 0 .047-.031.094-.047.125l-2.016 4.531L33.593.578h.938V.109c-.375.031-1.328.031-1.766.031-.375 0-1.219 0-1.562-.031v.469h.906l2.75 6.203c.078.172.125.25.406.25.156 0 .281 0 .391-.234zm0 0"/><use xlink:href="#m"/><use xlink:href="#O" x="10.192" y="0.031"/><use xlink:href="#n"/><use xlink:href="#S" x="12.923"/><use xlink:href="#m" x="18.298"/><use xlink:href="#o"/><use xlink:href="#n" x="19.571"/><use xlink:href="#F" x="57.988" y="0.031"/><use xlink:href="#R" x="49.839"/></g><path d="M314.125 155.046v-17.867h59.326v38.103c-8.191-3.158-21.42-3.158-29.614 0s-21.42 3.161-29.614 0z" class="B"/><path d="M312.104 157.076v-17.768h59.332v38.005c-8.196-3.158-21.425-3.158-29.614 0-8.196 3.156-21.425 3.156-29.614 0z" class="H"/><path d="M309.991 159.164v-17.872h59.326V179.4c-8.189-3.163-21.418-3.163-29.614 0-8.189 3.156-21.418 3.156-29.614 0z" class="G"/><path d="M5.031 5.531L2.641.25C2.531 0 2.422 0 2.203 0H0v.469h1.063v5.625c0 .219 0 .219-.281.25-.234.031-.266.031-.547.031H0v.469c.375-.031.938-.031 1.328-.031l1.344.031v-.469h-.25c-.172 0-.344-.016-.531-.031-.281-.031-.297-.031-.297-.25V.61h.016l2.703 5.984c.094.203.219.25.328.25.203 0 .281-.156.313-.234L7.735.469h.016v5.906H6.672v.469c.359-.031 1.281-.031 1.688-.031l1.719.031v-.469H9V.469h1.078V0H7.875c-.219 0-.344 0-.453.25zM16.876 4.11h-.469c-.078.688-.25 2.266-2.031 2.266h-1.031V.469h1.359V0c-.453.031-1.531.031-2.016.031-.437 0-1.453 0-1.828-.031v.469h1.078v5.906H10.86v.469h5.703zm0 0" transform="matrix(.881945 0 0 .881945 332.62196 148.65968)"/><g transform="matrix(.881945 0 0 .881945 315.67699 159.27911)"><path d="M4.313.25C4.203 0 4.094 0 3.922 0c-.281 0-.328.078-.391.25l-2.469 6c-.062.156-.094.234-.844.234H0v.469l1.172-.031 1.313.031v-.469c-.016 0-.891 0-.891-.125a.41.41 0 0 1 .047-.125l.5-1.203h2.672l.594 1.453h-.953v.469c.391-.031 1.328-.031 1.766-.031l1.625.031v-.469h-.969zm-.844 1.547L4.61 4.562H2.328zm7.02-1.766L8.724.109v.469c.625 0 .688 0 .688.391v5.516h-.687v.469l1.219-.031 1.234.031v-.469h-.687zm3.496 5.031c-.875 0-.875-.672-.875-1.125 0-.437 0-1.109.875-1.109s.875.672.875 1.109c0 .453 0 1.125-.875 1.125zm-1.219.094c.453.234.969.266 1.219.266 1.438 0 1.984-.781 1.984-1.484a1.36 1.36 0 0 0-.406-.953c.297-.156.516-.172.625-.187-.031.047-.047.141-.047.203 0 .25.172.422.438.422A.41.41 0 0 0 17.001 3c0-.234-.172-.578-.625-.578a1.77 1.77 0 0 0-1.062.375c-.172-.125-.594-.328-1.328-.328-1.437 0-1.984.781-1.984 1.469 0 .406.188.828.516 1.047-.281.359-.344.688-.344.891 0 .156.047.641.438.953-.125.031-.859.25-.859.875 0 .5.563 1.25 2.547 1.25 1.766 0 2.547-.578 2.547-1.281 0-.297-.078-.922-.75-1.266-.562-.281-1.156-.281-2.109-.281-.266 0-.719 0-.766-.016-.453-.062-.562-.437-.562-.625 0-.094.047-.25.109-.328zm.609 1.922h1.172c.313 0 1.438 0 1.438.625 0 .359-.391.891-1.687.891-1.187 0-1.687-.453-1.687-.906 0-.609.625-.609.766-.609zm0 0"/><use xlink:href="#F" x="5.007" y="0.031"/><use xlink:href="#Q" x="12.079"/><use xlink:href="#n" x="-19.781"/><use xlink:href="#o" x="-31.715"/><path d="M36.391 6.484h-.687v.469l1.25-.031 1.25.031v-.469h-.687V4.406a1.51 1.51 0 0 1 1.5-1.578c.328 0 .547.203.547.969v2.688h-.687v.469l1.25-.031 1.25.031v-.469h-.687V3.906c0-1.047-.531-1.437-1.531-1.437a1.88 1.88 0 0 0-1.687.969V.031l-1.766.078v.469c.609 0 .688 0 .688.391zm6.365-3.078v3.078h-.687v.469l1.25-.031 1.25.031v-.469h-.687V4.406a1.52 1.52 0 0 1 1.5-1.578c.328 0 .547.203.547.969v2.688h-.687v.469l1.266-.031 1.25.031v-.469h-.687V4.406c0-1.094.859-1.578 1.484-1.578.344 0 .563.203.563.969v2.688h-.687v.469l1.25-.031 1.266.031v-.469h-.687V3.906c0-1.031-.516-1.437-1.547-1.437a1.87 1.87 0 0 0-1.687.953c-.187-.922-1.109-.953-1.484-.953a1.89 1.89 0 0 0-1.766 1.078V2.469l-1.703.078v.469c.609 0 .688 0 .688.391zm0 0"/><use xlink:href="#I" x="22.613" y="0.031"/></g><path d="M465.453 162.497h-64.391c-1.955 0-3.492-1.249-3.492-2.843v-52.401c0-1.594 1.537-2.843 3.492-2.843h64.391c1.955 0 3.492 1.249 3.492 2.843v52.401c0 1.594-1.537 2.843-3.492 2.843z" class="B E"/><g fill="none"><path d="M415.679 154.651l1.732-.041.941-.026.941-.046.946-.057.941-.072.945-.102.941-.139.946-.185.941-.237.941-.318.946-.412a9.84 9.84 0 0 0 .94-.524l.946-.668.941-.832.946-1.019.941-1.192.945-1.357.941-1.491.941-1.578.632-1.059.941-1.554.946-1.454.941-1.307.941-1.136.946-.952a10.76 10.76 0 0 1 .94-.771 9.06 9.06 0 0 1 .946-.622c.308-.185.628-.34.941-.489l.946-.376.941-.288.945-.22.941-.16.941-.132.946-.088.941-.072.945-.052.941-.041.787-.02 1.414-.03" stroke="#8080ff" stroke-linecap="round" stroke-width=".759"/><g stroke-width=".253" class="D"><path d="M415.649 157.01h37.628m-37.628 0v-1.203"/><path d="M453.277 157.01v-1.203m-7.521 1.203v-1.203m-7.527 1.203v-1.203m-7.527 1.203v-1.203m-7.527 1.203v-1.203m-10.169-1.197v-21.301m0 21.238h1.316"/><path d="M413.006 133.37h1.316m-1.316 16.941h1.316"/><path d="M413.006 146.075h1.316m-1.316-4.236h1.316m-1.316-4.232h1.316"/></g></g><path d="M414.557 112.623l-1.268-.276c-.358-.083-.841-.372-.841-.91 0-.386.248-.923 1.116-.923.703 0 1.599.289 1.805 1.488.028.22.028.234.207.234.22 0 .22-.041.22-.248v-1.612c0-.165 0-.248-.165-.248-.069 0-.069.014-.165.096l-.4.386c-.51-.4-1.089-.482-1.502-.482-1.337 0-1.971.854-1.971 1.778 0 .565.289.965.469 1.158.441.441.73.496 1.695.703.772.179.923.193 1.116.386.124.124.345.358.345.758 0 .427-.22 1.034-1.144 1.034-.661 0-1.998-.179-2.067-1.488-.014-.152-.014-.193-.207-.193-.207 0-.207.041-.207.248v1.599c0 .165 0 .248.152.248.083 0 .096-.014.165-.083l.413-.4c.579.427 1.392.482 1.75.482 1.461 0 1.998-.992 1.998-1.888 0-.965-.703-1.681-1.516-1.847zm0 0"/><use xlink:href="#p"/><use xlink:href="#q"/><use xlink:href="#p" x="8.841"/><use xlink:href="#r"/><path d="M434.08 113.67c-.331-.055-.896-.152-.896-.565 0-.551.813-.551.978-.551.661 0 .992.262 1.034.744.014.138.028.179.207.179.207 0 .207-.041.207-.248v-.703c0-.165 0-.248-.152-.248-.041 0-.055 0-.4.165-.234-.11-.537-.165-.882-.165-.276 0-1.626 0-1.626 1.158 0 .345.179.579.358.73.345.303.689.358 1.364.482.317.055.965.165.965.689 0 .661-.799.661-.992.661-.937 0-1.158-.648-1.268-1.02-.041-.124-.096-.124-.207-.124-.22 0-.22.055-.22.248v.965c0 .165 0 .248.165.248.055 0 .069 0 .262-.138.014 0 .207-.124.22-.152.413.289.868.289 1.047.289.276 0 1.626 0 1.626-1.282 0-.386-.179-.689-.482-.937-.345-.248-.634-.303-1.309-.427zm0 0"/><use xlink:href="#p" x="19.563"/><use xlink:href="#r" x="10.721"/><path d="M446.11 112.678c-.165.152-.179.331-.179.413a.53.53 0 0 0 .537.551c.276 0 .565-.193.565-.551 0-.758-1.02-.813-1.53-.813-1.585 0-2.232 1.006-2.232 2.026 0 1.171.827 2.012 2.177 2.012 1.433 0 1.695-1.02 1.695-1.089 0-.124-.124-.124-.207-.124-.165 0-.165.028-.22.138-.22.551-.648.717-1.089.717-1.226 0-1.226-1.282-1.226-1.695 0-.496 0-1.626 1.13-1.626.317 0 .455.014.579.041zm0 0"/><use xlink:href="#q" x="26.859"/><use xlink:href="#s"/><path d="M424 126.403l-2.108-4.658c-.096-.22-.193-.22-.386-.22h-1.943v.413h.937v4.961c0 .193 0 .193-.248.22-.207.028-.234.028-.482.028h-.207v.413c.331-.028.827-.028 1.171-.028l1.185.028v-.413h-.22c-.152 0-.303-.014-.469-.028-.248-.028-.262-.028-.262-.22v-4.837h.014l2.384 5.278c.083.179.193.22.289.22.179 0 .248-.138.276-.207l2.453-5.416h.014v5.209h-.951v.413c.317-.028 1.13-.028 1.488-.028l1.516.028v-.413h-.951v-5.209h.951v-.413h-1.943c-.193 0-.303 0-.4.22zm9.564-.758c0-1.185-.813-2.067-2.246-2.067-1.447 0-2.246.896-2.246 2.067 0 1.089.785 1.971 2.246 1.971 1.475 0 2.246-.896 2.246-1.971zm-2.246 1.612c-1.116 0-1.116-.951-1.116-1.709 0-.4 0-.841.152-1.144.165-.331.537-.51.965-.51.372 0 .744.138.937.441.179.303.179.785.179 1.213 0 .758 0 1.709-1.116 1.709zm6.491-.069v.427l1.599-.055v-.413c-.537 0-.606 0-.606-.345v-5.347l-1.557.069v.413c.551 0 .62 0 .62.345v1.723a1.92 1.92 0 0 0-1.199-.4c-1.282 0-2.205.772-2.205 2.012 0 1.158.813 1.998 2.108 1.998a1.99 1.99 0 0 0 1.24-.427zm0-2.729v2.191c-.124.165-.482.648-1.144.648-1.075 0-1.075-1.061-1.075-1.681 0-.427 0-.896.22-1.24.262-.372.675-.455.951-.455.496 0 .854.276 1.047.537zm6 1.186c.193 0 .276 0 .276-.234 0-.276-.055-.923-.496-1.364-.317-.317-.785-.469-1.392-.469-1.406 0-2.177.91-2.177 1.998 0 1.185.882 2.039 2.301 2.039 1.392 0 1.764-.937 1.764-1.089s-.165-.152-.207-.152c-.152 0-.165.041-.22.179-.179.427-.689.703-1.254.703-1.24 0-1.254-1.171-1.254-1.612zm-2.66-.289c.014-.345.028-.717.207-1.006a1.03 1.03 0 0 1 .841-.455c1.034 0 1.047 1.158 1.061 1.461zm0 0"/><use xlink:href="#s" x="-7.968" y="11.3"/><g fill="none" stroke-width=".998" class="D"><path d="M369.318 157.759l25.419.167" marker-end="url(#C)"/><path d="M469.281 110.386l55.23-49.758" marker-end="url(#A)"/></g></svg>