<svg xmlns="http://www.w3.org/2000/svg" xmlns:xlink="http://www.w3.org/1999/xlink" version="1.1" width="764" height="443" viewBox="0 0 764 443">
<defs>
<clipPath id="clip_0">
<path transform="matrix(1,0,0,-1,-14,456)" d="M0 0H792V468H0Z"/>
</clipPath>
<clipPath id="clip_1">
<path transform="matrix(1,0,0,1,-14,-12)" d="M0 0H792V468H0Z"/>
</clipPath>
<clipPath id="clip_2">
<path transform="matrix(1,0,0,1,-14,-12)" d="M0 0H792V468H0Z"/>
</clipPath>
<clipPath id="clip_3">
<path transform="matrix(1,0,0,1,-14,-12)" d="M0 0H792V468H0Z"/>
</clipPath>
<clipPath id="clip_4">
<path transform="matrix(1,0,0,1,-14,-12)" d="M0 0H792V468H0Z"/>
</clipPath>
<clipPath id="clip_5">
<path transform="matrix(1,0,0,1,-14,-12)" d="M0 0H792V468H0Z"/>
</clipPath>
<clipPath id="clip_6">
<path transform="matrix(1,0,0,1,-14,-12)" d="M0 0H792V468H0Z"/>
</clipPath>
<clipPath id="clip_7">
<path transform="matrix(1,0,0,1,-14,-12)" d="M0 0H792V468H0Z"/>
</clipPath>
<clipPath id="clip_8">
<path transform="matrix(1,0,0,1,-14,-12)" d="M0 0H792V468H0Z"/>
</clipPath>
<clipPath id="clip_9">
<path transform="matrix(1,0,0,1,-14,-12)" d="M0 0H792V468H0Z"/>
</clipPath>
<clipPath id="clip_10">
<path transform="matrix(1,0,0,1,-14,-12)" d="M0 0H792V468H0Z"/>
</clipPath>
<clipPath id="clip_11">
<path transform="matrix(1,0,0,1,-14,-12)" d="M0 0H792V468H0Z"/>
</clipPath>
<clipPath id="clip_12">
<path transform="matrix(1,0,0,1,-14,-12)" d="M0 0H792V468H0Z"/>
</clipPath>
<clipPath id="clip_13">
<path transform="matrix(1,0,0,1,-14,-12)" d="M0 0H792V468H0Z"/>
</clipPath>
<clipPath id="clip_14">
<path transform="matrix(1,0,0,1,-14,-12)" d="M0 0H792V468H0Z"/>
</clipPath>
<clipPath id="clip_15">
<path transform="matrix(1,0,0,1,-14,-12)" d="M0 0H792V468H0Z"/>
</clipPath>
<clipPath id="clip_16">
<path transform="matrix(1,0,0,1,-14,-12)" d="M0 0H792V468H0Z"/>
</clipPath>
<clipPath id="clip_17">
<path transform="matrix(1,0,0,1,-14,-12)" d="M0 0H792V468H0Z"/>
</clipPath>
<clipPath id="clip_18">
<path transform="matrix(1,0,0,1,-14,-12)" d="M0 0H792V468H0Z"/>
</clipPath>
<clipPath id="clip_19">
<path transform="matrix(1,0,0,1,-14,-12)" d="M0 0H792V468H0Z"/>
</clipPath>
<clipPath id="clip_20">
<path transform="matrix(1,0,0,1,-14,-12)" d="M0 0H792V468H0Z"/>
</clipPath>
<clipPath id="clip_21">
<path transform="matrix(1,0,0,1,-14,-12)" d="M0 0H792V468H0Z"/>
</clipPath>
<clipPath id="clip_22">
<path transform="matrix(1,0,0,1,-14,-12)" d="M0 0H792V468H0Z"/>
</clipPath>
<clipPath id="clip_23">
<path transform="matrix(1,0,0,1,-14,-12)" d="M0 0H792V468H0Z"/>
</clipPath>
<clipPath id="clip_24">
<path transform="matrix(1,0,0,1,-14,-12)" d="M0 0H792V468H0Z"/>
</clipPath>
<clipPath id="clip_25">
<path transform="matrix(1,0,0,1,-14,-12)" d="M0 0H792V468H0Z"/>
</clipPath>
<clipPath id="clip_26">
<path transform="matrix(1,0,0,1,-14,-12)" d="M0 0H792V468H0Z"/>
</clipPath>
<clipPath id="clip_27">
<path transform="matrix(1,0,0,1,-14,-12)" d="M0 0H792V468H0Z"/>
</clipPath>
<clipPath id="clip_28">
<path transform="matrix(1,0,0,1,-14,-12)" d="M0 0H792V468H0Z"/>
</clipPath>
<clipPath id="clip_29">
<path transform="matrix(1,0,0,1,-14,-12)" d="M0 0H792V468H0Z"/>
</clipPath>
<clipPath id="clip_30">
<path transform="matrix(1,0,0,1,-14,-12)" d="M0 0H792V468H0Z"/>
</clipPath>
<clipPath id="clip_31">
<path transform="matrix(1,0,0,1,-14,-12)" d="M0 0H792V468H0Z"/>
</clipPath>
<clipPath id="clip_32">
<path transform="matrix(1,0,0,1,-14,-12)" d="M0 0H792V468H0Z"/>
</clipPath>
<clipPath id="clip_33">
<path transform="matrix(1,0,0,1,-14,-12)" d="M0 0H792V468H0Z"/>
</clipPath>
<clipPath id="clip_34">
<path transform="matrix(1,0,0,1,-14,-12)" d="M0 0H792V468H0Z"/>
</clipPath>
<clipPath id="clip_35">
<path transform="matrix(1,0,0,1,-14,-12)" d="M0 0H792V468H0Z"/>
</clipPath>
<clipPath id="clip_36">
<path transform="matrix(1,0,0,1,-14,-12)" d="M0 0H792V468H0Z"/>
</clipPath>
<clipPath id="clip_37">
<path transform="matrix(1,0,0,1,-14,-12)" d="M0 0H792V468H0Z"/>
</clipPath>
<clipPath id="clip_38">
<path transform="matrix(1,0,0,1,-14,-12)" d="M0 0H792V468H0Z"/>
</clipPath>
<clipPath id="clip_39">
<path transform="matrix(1,0,0,1,-14,-12)" d="M0 0H792V468H0Z"/>
</clipPath>
<clipPath id="clip_40">
<path transform="matrix(1,0,0,1,-14,-12)" d="M0 0H792V468H0Z"/>
</clipPath>
<clipPath id="clip_41">
<path transform="matrix(1,0,0,1,-14,-12)" d="M0 0H792V468H0Z"/>
</clipPath>
<clipPath id="clip_42">
<path transform="matrix(1,0,0,1,-14,-12)" d="M0 0H792V468H0Z"/>
</clipPath>
</defs>
<g>
<g>
<g clip-path="url(#clip_0)">
<path transform="matrix(1,0,0,1,-14,-12)" d="M635.02 39.129H711.93C718.91 39.129 724.531 44.75 724.531 51.73V135.391C724.531 142.371 718.91 147.992 711.93 147.992H635.02C628.039 147.992 622.418 142.371 622.418 135.391V51.73C622.418 44.75 628.039 39.129 635.02 39.129ZM635.02 39.129" fill="#f2f2f2"/>
<path transform="matrix(1,0,0,1,-14,-12)" stroke-width=".604397" stroke-linecap="butt" stroke-dasharray=".604397,1.813184" stroke-miterlimit="4" stroke-linejoin="miter" fill="none" stroke="#040000" d="M635.02 39.129H711.93C718.91 39.129 724.531 44.75 724.531 51.73V135.391C724.531 142.371 718.91 147.992 711.93 147.992H635.02C628.039 147.992 622.418 142.371 622.418 135.391V51.73C622.418 44.75 628.039 39.129 635.02 39.129ZM635.02 39.129"/>
<text xml:space="preserve" transform="matrix(1 0 0 1 -14 -12)" font-size="9.975373" font-family="DejaVuSans" font-weight="bold"><tspan y="51.993295" x="629.2701 635.6244 642.3877 649.5201 656.2834 663.37588">Legend</tspan></text>
<g clip-path="url(#clip_1)">
<path transform="matrix(1,0,0,.866052,-14,-12)" d="M630.469 76.068H717.074V94.304H630.469Z" fill="#ffd5d5"/>
<path transform="matrix(1,0,0,.866052,-14,-12)" stroke-width=".563529" stroke-linecap="butt" stroke-miterlimit="4" stroke-linejoin="miter" fill="none" stroke="#000000" d="M630.469 76.068H717.074V94.304H630.469Z"/>
</g>
<text xml:space="preserve" transform="matrix(1 0 0 1 -14 -12)" font-size="9.975364" font-family="DejaVuSans"><tspan y="76.527988" x="636.2951 639.0583 645.3727 649.283 655.41787 659.3581 665.6725 671.7774 674.5406 677.70278 682.88998 688.39639 692.4962 695.2594 701.5838 705.49417">internal scripts</tspan></text>
<g clip-path="url(#clip_2)">
<path transform="matrix(1,0,0,.866052,-14,-12)" d="M630.469 111.353H717.074V129.58899H630.469Z" fill="#d9ead3"/>
<path transform="matrix(1,0,0,.866052,-14,-12)" stroke-width=".563529" stroke-linecap="butt" stroke-miterlimit="4" stroke-linejoin="miter" fill="none" stroke="#000000" d="M630.469 111.353H717.074V129.58899H630.469Z"/>
</g>
<text xml:space="preserve" transform="matrix(1 0 0 1 -14 -12)" font-size="9.975364" font-family="DejaVuSans"><tspan y="108.052799" x="636.6848 643.0092 649.11416 653.0245 659.1294">data </tspan></text>
<text xml:space="preserve" transform="matrix(1 0 0 1 -14 -12)" font-size="9.975364" font-family="DejaVuSans"><tspan y="108.052799" x="662.29159">&#xfb01;</tspan></text>
<text xml:space="preserve" transform="matrix(1 0 0 1 -14 -12)" font-size="9.975364" font-family="DejaVuSans"><tspan y="108.052799" x="668.59597 671.35916 677.49398">les</tspan></text>
<g clip-path="url(#clip_3)">
<path transform="matrix(1,0,0,1,-14,-12)" d="M630.469 126.996H717.074V142.789H630.469Z" fill="#cfe2f3"/>
<path transform="matrix(1,0,0,1,-14,-12)" stroke-width=".524429" stroke-linecap="butt" stroke-miterlimit="4" stroke-linejoin="miter" fill="none" stroke="#000000" d="M630.469 126.996H717.074V142.789H630.469Z"/>
</g>
<text xml:space="preserve" transform="matrix(1 0 0 1 -14 -12)" font-size="9.975364" font-family="DejaVuSans"><tspan y="138.61077" x="636.6848 642.6401 648.5355 652.44589 658.5807 662.52096 668.8353 674.94027 677.7034 680.8656 684.77597 690.8709 696.9659 699.72909">external tools</tspan></text>
<path transform="matrix(1,0,0,1,-14,-12)" stroke-width=".897783" stroke-linecap="butt" stroke-dasharray=".897783,3.591134" stroke-miterlimit="4" stroke-linejoin="miter" fill="none" stroke="#040000" d="M41.008 12.723H205.762C220.324 12.723 232.047 24.445 232.047 39.004V213.504C232.047 228.062 220.324 239.785 205.762 239.785H41.008C26.449 239.785 14.727 228.062 14.727 213.504V39.004C14.727 24.445 26.449 12.723 41.008 12.723ZM41.008 12.723"/>
<text xml:space="preserve" transform="matrix(1 0 0 1 -14 -12)" font-size="9.975364" font-family="DejaVuSans" font-weight="bold"><tspan y="26.87552" x="29.205662 37.485216 44.20861 48.976835 55.70023 59.171659 66.35392 73.236919 80.3294 85.24725 91.182598 97.94589">Data Sources</tspan></text>
<g opacity=".995">
<g clip-path="url(#clip_4)">
<path transform="matrix(1,0,0,1,-14,-12)" d="M24.5 46.594H95.754V94.805H24.5Z" fill="#efefef"/>
</g>
</g>
<g opacity=".995">
<g clip-path="url(#clip_5)">
<path transform="matrix(1,0,0,1,-14,-12)" d="M24.5 46.594C24.5 39.977 40.449 34.613 60.125 34.613 79.805 34.613 95.754 39.977 95.754 46.594" fill="#efefef" fill-opacity=".996078"/>
<path transform="matrix(1,0,0,1,-14,-12)" stroke-width=".718227" stroke-linecap="butt" stroke-miterlimit="4" stroke-linejoin="miter" fill="none" stroke="#000000" d="M24.5 46.594C24.5 39.977 40.449 34.613 60.125 34.613 79.805 34.613 95.754 39.977 95.754 46.594"/>
</g>
</g>
<g opacity=".995">
<g clip-path="url(#clip_6)">
<path transform="matrix(1,0,0,1,-14,-12)" d="M95.754 46.594C95.754 53.211 79.805 58.574 60.125 58.574 40.449 58.574 24.5 53.211 24.5 46.594" fill="#efefef" fill-opacity=".996078"/>
<path transform="matrix(1,0,0,1,-14,-12)" stroke-width=".706916" stroke-linecap="butt" stroke-miterlimit="4" stroke-linejoin="miter" fill="none" stroke="#000000" d="M95.754 46.594C95.754 53.211 79.805 58.574 60.125 58.574 40.449 58.574 24.5 53.211 24.5 46.594"/>
</g>
</g>
<g opacity=".995">
<g clip-path="url(#clip_7)">
<path transform="matrix(1,0,0,1,-14,-12)" d="M95.754 94.805C95.754 101.422 79.805 106.785 60.125 106.785 40.449 106.785 24.5 101.422 24.5 94.805" fill="#efefef" fill-opacity=".996078"/>
<path transform="matrix(1,0,0,1,-14,-12)" stroke-width=".706916" stroke-linecap="butt" stroke-miterlimit="4" stroke-linejoin="miter" fill="none" stroke="#000000" d="M95.754 94.805C95.754 101.422 79.805 106.785 60.125 106.785 40.449 106.785 24.5 101.422 24.5 94.805"/>
</g>
</g>
<g opacity=".995">
<g clip-path="url(#clip_8)">
<path transform="matrix(1,0,0,1,-14,-12)" stroke-width=".735688" stroke-linecap="butt" stroke-miterlimit="4" stroke-linejoin="miter" fill="none" stroke="#000000" d="M24.5 94.805V46.594"/>
</g>
</g>
<g opacity=".995">
<g clip-path="url(#clip_9)">
<path transform="matrix(1,0,0,1,-14,-12)" stroke-width=".706916" stroke-linecap="butt" stroke-miterlimit="4" stroke-linejoin="miter" fill="none" stroke="#000000" d="M95.754 94.805V46.594"/>
</g>
</g>
<g opacity=".995">
<g clip-path="url(#clip_10)">
<path transform="matrix(1,0,0,1,-14,-12)" stroke-width=".706916" stroke-linecap="butt" stroke-miterlimit="4" stroke-linejoin="miter" fill="none" stroke="#000000" d="M24.5 94.805V46.594"/>
</g>
</g>
<text xml:space="preserve" transform="matrix(1 0 0 1 -14 -12)" font-size="9.975364" font-family="DejaVuSans"><tspan y="74.40173" x="40.29496 46.140523 52.454927 58.779306 67.37807 73.51292">PubMed</tspan><tspan y="84.3771" x="52.832357 60.513387">DB</tspan></text>
<path transform="matrix(1,0,0,1,-14,-12)" d="M139.047 63.039C141.199 53.613 148.961 46.855 162.176 50.695 173.055 42.68 185.238 40.75 197.594 50.074 209.754 47.254 214.535 55.109 214.699 63.188 222.645 66.023 222.512 73.746 216.352 77.07 216.953 90.082 206.258 94.156 198.906 91.562 184.844 100.91 169.336 98.793 158.758 88.855 148.949 94.633 138.555 90.152 136.395 79.199 131.809 77.27 127.262 66.531 139.047 63.039ZM139.047 63.039" fill="#efefef" fill-opacity=".996078"/>
<path transform="matrix(1,0,0,1,-14,-12)" stroke-width=".706916" stroke-linecap="butt" stroke-miterlimit="4" stroke-linejoin="miter" fill="none" stroke="#000000" d="M139.047 63.039C141.199 53.613 148.961 46.855 162.176 50.695 173.055 42.68 185.238 40.75 197.594 50.074 209.754 47.254 214.535 55.109 214.699 63.188 222.645 66.023 222.512 73.746 216.352 77.07 216.953 90.082 206.258 94.156 198.906 91.562 184.844 100.91 169.336 98.793 158.758 88.855 148.949 94.633 138.555 90.152 136.395 79.199 131.809 77.27 127.262 66.531 139.047 63.039ZM139.047 63.039"/>
<text xml:space="preserve" transform="matrix(1 0 0 1 -14 -12)" font-size="9.975364" font-family="DejaVuSans"><tspan y="74.41527" x="146.8441 156.11122 162.24607 168.57045 171.73264 178.05702 184.19187 190.29679 194.19715 199.67362">Web Search</tspan></text>
<g clip-path="url(#clip_11)">
<path transform="matrix(.973241,0,0,1,-14,-12)" d="M23.58 116.227H98.788V132.05899H23.58Z" fill="#cfe2f3"/>
<path transform="matrix(.973241,0,0,1,-14,-12)" stroke-width=".489337" stroke-linecap="butt" stroke-miterlimit="4" stroke-linejoin="miter" fill="none" stroke="#000000" d="M23.58 116.227H98.788V132.05899H23.58Z"/>
</g>
<text xml:space="preserve" transform="matrix(1 0 0 1 -14 -12)" font-size="9.975364" font-family="DejaVuSans"><tspan y="126.895259" x="32.891798 39.21618 45.111619 54.82762 60.96247 67.28685 70.44904 77.272197 83.28734">pymed API</tspan></text>
<g clip-path="url(#clip_12)">
<path transform="matrix(1,0,0,.757467,-14,-12)" d="M128.918 153.493H227.719V174.29599H128.918Z" fill="#cfe2f3"/>
<path transform="matrix(1,0,0,.757467,-14,-12)" stroke-width=".642878" stroke-linecap="butt" stroke-miterlimit="4" stroke-linejoin="miter" fill="none" stroke="#000000" d="M128.918 153.493H227.719V174.29599H128.918Z"/>
</g>
<text xml:space="preserve" transform="matrix(1 0 0 1 -14 -12)" font-size="9.975364" font-family="DejaVuSans"><tspan y="127.47" x="132.01343 135.17562 138.52733 143.71453 147.62487 153.10134 156.45305 161.95944 168.27385 172.18419 178.27913 187.99514 194.12998 200.45436 204.55423 207.31742 213.21286 219.3477">./src/chromedriver</tspan></text>
<path transform="matrix(1,0,0,1,-14,-12)" stroke-width=".718227" stroke-linecap="butt" stroke-miterlimit="4" stroke-linejoin="miter" fill="none" stroke="#000000" d="M33.902 102.992 33.77 114.945"/>
<path transform="matrix(.0111232,-1,1,.0111232,-14,-12)" d="M-110.802 36.783-115.509 35.05-110.801 33.318C-111.552 34.342-111.548 35.741-110.802 36.783ZM-110.802 36.783" fill-rule="evenodd"/>
<path transform="matrix(.0111232,-1,1,.0111232,-14,-12)" stroke-width=".269318" stroke-linecap="butt" stroke-linejoin="round" fill="none" stroke="#000000" d="M-110.802 36.783-115.509 35.05-110.801 33.318C-111.552 34.342-111.548 35.741-110.802 36.783ZM-110.802 36.783"/>
<path transform="matrix(1,0,0,1,-14,-12)" stroke-width=".718227" stroke-linecap="butt" stroke-miterlimit="4" stroke-linejoin="miter" fill="none" stroke="#000000" d="M155.25 90.566 155.156 115.098"/>
<path transform="matrix(.00385556,-1,1,.00385556,-14,-12)" d="M-110.741 157.337-115.451 155.605-110.743 153.872C-111.493 154.895-111.491 156.293-110.741 157.337ZM-110.741 157.337" fill-rule="evenodd"/>
<path transform="matrix(.00385556,-1,1,.00385556,-14,-12)" stroke-width=".269333" stroke-linecap="butt" stroke-linejoin="round" fill="none" stroke="#000000" d="M-110.741 157.337-115.451 155.605-110.743 153.872C-111.493 154.895-111.491 156.293-110.741 157.337ZM-110.741 157.337"/>
<g>
<g clip-path="url(#clip_13)">
<path transform="matrix(1,0,0,1,-14,-12)" d="M23.07 154.668H133.453V177.906H23.07Z" fill="#efefef" fill-opacity=".870588"/>
<path transform="matrix(1,0,0,1,-14,-12)" stroke-width=".718227" stroke-linecap="butt" stroke-miterlimit="4" stroke-linejoin="miter" fill="none" stroke="#000000" d="M23.07 154.668H133.453V177.906H23.07Z"/>
</g>
</g>
<text xml:space="preserve" transform="matrix(1 0 0 1 -14 -12)" font-size="9.975364" font-family="DejaVuSans"><tspan y="169.03958" x="33.61983 42.218599 48.32352 54.637926 60.982259 67.08718 69.85036 73.01255 79.33693 84.8134 88.72375 94.8586 100.99345 107.30785 110.07103 116.38544">Manual Screening</tspan></text>
<g clip-path="url(#clip_14)">
<path transform="matrix(1,0,0,1,-14,-12)" d="M23.02 189.246H166.504V204.883H23.02Z" fill="#d9ead3"/>
<path transform="matrix(1,0,0,1,-14,-12)" stroke-width=".610549" stroke-linecap="butt" stroke-miterlimit="4" stroke-linejoin="miter" fill="none" stroke="#040000" d="M23.02 189.246H166.504V204.883H23.02Z"/>
</g>
<text xml:space="preserve" transform="matrix(1 0 0 1 -14 -12)" font-size="9.975364" font-family="DejaVuSans"><tspan y="199.6779" x="32.837865 36.000055 39.351778 45.676156 51.78108 55.69142 61.82627 65.17799 69.07836 75.21321 77.97639 84.11124 90.006679 96.1116 102.42601 106.33635 111.32403 115.23437 117.99754 121.90788 124.67106 130.80591 135.9931 139.18521 144.66168 149.84888">./data/relevant_titles.csv</tspan></text>
<g clip-path="url(#clip_15)">
<path transform="matrix(1,0,0,1,-14,-12)" d="M23.02 210.113H166.504V225.75402H23.02Z" fill="#d9ead3"/>
<path transform="matrix(1,0,0,1,-14,-12)" stroke-width=".610549" stroke-linecap="butt" stroke-miterlimit="4" stroke-linejoin="miter" fill="none" stroke="#040000" d="M23.02 210.113H166.504V225.75402H23.02Z"/>
</g>
<text xml:space="preserve" transform="matrix(1 0 0 1 -14 -12)" font-size="9.975364" font-family="DejaVuSans"><tspan y="220.54579" x="26.756697 29.918889 33.27061 39.594995 45.699918 49.61026 55.74511 59.096834 68.812839 71.57601 76.7632 81.950389 84.71356 91.02797 97.35235 102.34003 108.47487 112.574748 116.485088 119.24826 124.72473 127.48791 133.62276 138.80995 141.97214 144.73532 149.92252 156.01746">./data/missing_articles.json</tspan></text>
<path transform="matrix(1,0,0,1,-14,-12)" stroke-width=".718227" stroke-linecap="butt" stroke-miterlimit="4" stroke-linejoin="miter" fill="none" stroke="#000000" d="M46.973 178.137 47.055 188.531"/>
<path transform="matrix(-.00760319,-1,1,-.00760319,-14,-12)" d="M-185.122 47.354-189.827 45.623-185.119 43.893C-185.873 44.915-185.868 46.313-185.122 47.354ZM-185.122 47.354" fill-rule="evenodd"/>
<path transform="matrix(-.00760319,-1,1,-.00760319,-14,-12)" stroke-width=".269327" stroke-linecap="butt" stroke-linejoin="round" fill="none" stroke="#000000" d="M-185.122 47.354-189.827 45.623-185.119 43.893C-185.873 44.915-185.868 46.313-185.122 47.354ZM-185.122 47.354"/>
<text xml:space="preserve" transform="matrix(1 0 0 1 -14 -12)" font-size="9.975364" font-family="DejaVuSans" font-weight="bold"><tspan y="27.65735" x="299.7933 308.07286 314.79624 319.56446 326.28785 329.75929 336.94154 341.7397 348.59278 353.51063 360.234 367.39634">Data Storage</tspan></text>
<g opacity=".995">
<g clip-path="url(#clip_16)">
<path transform="matrix(1,0,0,1,-14,-12)" d="M301.066 73.832H345.957V101.406H301.066Z" fill="#efefef"/>
</g>
</g>
<g opacity=".995">
<g clip-path="url(#clip_17)">
<path transform="matrix(1,0,0,1,-14,-12)" d="M301.066 73.832C301.066 70.051 311.117 66.98 323.512 66.98 335.91 66.98 345.957 70.051 345.957 73.832" fill="#efefef" fill-opacity=".996078"/>
<path transform="matrix(1,0,0,1,-14,-12)" stroke-width=".718227" stroke-linecap="butt" stroke-miterlimit="4" stroke-linejoin="miter" fill="none" stroke="#000000" d="M301.066 73.832C301.066 70.051 311.117 66.98 323.512 66.98 335.91 66.98 345.957 70.051 345.957 73.832"/>
</g>
</g>
<g opacity=".995">
<g clip-path="url(#clip_18)">
<path transform="matrix(1,0,0,1,-14,-12)" d="M345.957 73.832C345.957 77.617 335.91 80.684 323.512 80.684 311.117 80.684 301.066 77.617 301.066 73.832" fill="#efefef" fill-opacity=".996078"/>
<path transform="matrix(1,0,0,1,-14,-12)" stroke-width=".718227" stroke-linecap="butt" stroke-miterlimit="4" stroke-linejoin="miter" fill="none" stroke="#000000" d="M345.957 73.832C345.957 77.617 335.91 80.684 323.512 80.684 311.117 80.684 301.066 77.617 301.066 73.832"/>
</g>
</g>
<g opacity=".995">
<g clip-path="url(#clip_19)">
<path transform="matrix(1,0,0,1,-14,-12)" d="M345.957 101.406C345.957 105.191 335.91 108.258 323.512 108.258 311.117 108.258 301.066 105.191 301.066 101.406" fill="#efefef" fill-opacity=".996078"/>
<path transform="matrix(1,0,0,1,-14,-12)" stroke-width=".718227" stroke-linecap="butt" stroke-miterlimit="4" stroke-linejoin="miter" fill="none" stroke="#000000" d="M345.957 101.406C345.957 105.191 335.91 108.258 323.512 108.258 311.117 108.258 301.066 105.191 301.066 101.406"/>
</g>
</g>
<g opacity=".995">
<g clip-path="url(#clip_20)">
<path transform="matrix(1,0,0,1,-14,-12)" stroke-width=".441593" stroke-linecap="butt" stroke-miterlimit="4" stroke-linejoin="miter" fill="none" stroke="#000000" d="M301.066 101.406V73.832"/>
</g>
</g>
<g opacity=".995">
<g clip-path="url(#clip_21)">
<path transform="matrix(1,0,0,1,-14,-12)" stroke-width=".718227" stroke-linecap="butt" stroke-miterlimit="4" stroke-linejoin="miter" fill="none" stroke="#000000" d="M345.957 101.406V73.832"/>
</g>
</g>
<g opacity=".995">
<g clip-path="url(#clip_22)">
<path transform="matrix(1,0,0,1,-14,-12)" stroke-width=".718227" stroke-linecap="butt" stroke-miterlimit="4" stroke-linejoin="miter" fill="none" stroke="#000000" d="M301.066 101.406V73.832"/>
</g>
</g>
<text xml:space="preserve" transform="matrix(1 0 0 1 -14 -12)" font-size="9.975364" font-family="DejaVuSans"><tspan y="92.68794" x="316.1164 323.79743">DB</tspan></text>
<g clip-path="url(#clip_23)">
<path transform="matrix(1,0,0,1,-14,-12)" d="M361.672 79.586H518.28506V95.246H361.672Z" fill="#d9ead3"/>
<path transform="matrix(1,0,0,1,-14,-12)" stroke-width=".588727" stroke-linecap="butt" stroke-miterlimit="4" stroke-linejoin="miter" fill="none" stroke="#040000" d="M361.672 79.586H518.28506V95.246H361.672Z"/>
</g>
<text xml:space="preserve" transform="matrix(1 0 0 1 -14 -12)" font-size="9.975364" font-family="DejaVuSans"><tspan y="90.03024" x="367.79246 370.95466 374.30638 380.63075 386.73567 390.646 396.78086 400.13258 402.89576 408.9907 415.30509 421.62947 427.7643 433.65977 436.42295 440.33329 446.22874 451.2164 455.1168 461.25166 466.43885 472.5737 478.67863 482.58897 488.06544 494.37983 497.54203 502.75917 509.08354">./data/longevity_research.sql</tspan></text>
<g clip-path="url(#clip_24)">
<path transform="matrix(1,0,0,1,-14,-12)" d="M301.023 39.051H434.308V54.637H301.023Z" fill="#ffd5d5"/>
<path transform="matrix(1,0,0,1,-14,-12)" stroke-width=".628448" stroke-linecap="butt" stroke-miterlimit="4" stroke-linejoin="miter" fill="none" stroke="#040000" d="M301.023 39.051H434.308V54.637H301.023Z"/>
</g>
<text xml:space="preserve" transform="matrix(1 0 0 1 -14 -12)" font-size="9.975364" font-family="DejaVuSans"><tspan y="49.45712" x="305.84104 309.00325 312.35496 317.54216 321.45249 326.92897 330.28068 335.78709 339.68748 345.82234 351.92726 355.8376 361.97245 366.9601 373.2845 379.3894 383.29975 389.40467 395.72904 401.8639 407.0511 413.18595 416.34815 422.67253">./src/create_database.py</tspan></text>
<path transform="matrix(1,0,0,1,-14,-12)" stroke-width=".897783" stroke-linecap="butt" stroke-dasharray=".897783,3.591134" stroke-miterlimit="4" stroke-linejoin="miter" fill="none" stroke="#040000" d="M305.324 12.723H516.777C523.367 12.723 528.672 18.027 528.672 24.617V103.586C528.672 110.176 523.367 115.48 516.777 115.48H305.324C298.738 115.48 293.434 110.176 293.434 103.586V24.617C293.434 18.027 298.738 12.723 305.324 12.723ZM305.324 12.723"/>
<path transform="matrix(1,0,0,1,-14,-12)" stroke-width=".747422" stroke-linecap="butt" stroke-miterlimit="4" stroke-linejoin="miter" fill="none" stroke="#000000" d="M346.938 87.414 360.527 87.32"/>
<path transform="matrix(1,-.00689259,.00689259,1,-14,-12)" d="M350.232 91.613 345.33 89.81 350.229 88.008C349.449 89.073 349.45 90.526 350.232 91.613ZM350.232 91.613" fill-rule="evenodd"/>
<path transform="matrix(1,-.00689259,.00689259,1,-14,-12)" stroke-width=".280277" stroke-linecap="butt" stroke-linejoin="round" fill="none" stroke="#000000" d="M350.232 91.613 345.33 89.81 350.229 88.008C349.449 89.073 349.45 90.526 350.232 91.613ZM350.232 91.613"/>
<path transform="matrix(-1,.00689259,-.00689259,-1,-14,-12)" d="M-355.999-87.993-360.901-89.796-356.001-91.598C-356.782-90.533-356.777-89.076-355.999-87.993ZM-355.999-87.993" fill-rule="evenodd"/>
<path transform="matrix(-1,.00689259,-.00689259,-1,-14,-12)" stroke-width=".280277" stroke-linecap="butt" stroke-linejoin="round" fill="none" stroke="#000000" d="M-355.999-87.993-360.901-89.796-356.001-91.598C-356.782-90.533-356.777-89.076-355.999-87.993ZM-355.999-87.993"/>
<path transform="matrix(1,0,0,1,-14,-12)" stroke-width=".757984" stroke-linecap="butt" stroke-miterlimit="4" stroke-linejoin="miter" fill="none" stroke="#000000" d="M318.449 54.711V65.809"/>
<path transform="matrix(0,-1,1,0,-14,-12)" d="M-61.844 320.285-66.813 318.457-61.844 316.633C-62.637 317.711-62.633 319.188-61.844 320.285ZM-61.844 320.285" fill-rule="evenodd"/>
<path transform="matrix(0,-1,1,0,-14,-12)" stroke-width=".284244" stroke-linecap="butt" stroke-linejoin="round" fill="none" stroke="#000000" d="M-61.844 320.285-66.813 318.457-61.844 316.633C-62.637 317.711-62.633 319.188-61.844 320.285ZM-61.844 320.285"/>
<path transform="matrix(1,0,0,1,-14,-12)" stroke-width=".89778" stroke-linecap="butt" stroke-miterlimit="4" stroke-linejoin="miter" fill="none" stroke="#000000" d="M232.223 106.566 292.562 52.746"/>
<path transform="matrix(-1,.891956,-.891956,-1,-14,-12)" d="M-133.229-173.085-137.62-174.7-133.228-176.314C-133.929-175.361-133.925-174.057-133.229-173.085ZM-133.229-173.085" fill-rule="evenodd"/>
<path transform="matrix(-1,.891956,-.891956,-1,-14,-12)" stroke-width=".251245" stroke-linecap="butt" stroke-linejoin="round" fill="none" stroke="#000000" d="M-133.229-173.085-137.62-174.7-133.228-176.314C-133.929-175.361-133.925-174.057-133.229-173.085ZM-133.229-173.085"/>
<g opacity=".99">
<g clip-path="url(#clip_25)">
<path transform="matrix(1,0,0,1,-14,-12)" d="M23.992 384.836H181.63701V400.867H23.992Z" fill="#ffd5d5"/>
<path transform="matrix(1,0,0,1,-14,-12)" stroke-width=".718227" stroke-linecap="butt" stroke-miterlimit="4" stroke-linejoin="miter" fill="none" stroke="#000000" d="M23.992 384.836H181.63701V400.867H23.992Z"/>
</g>
</g>
<text xml:space="preserve" transform="matrix(.9848101 0 0 1.0154243 -14 -12)" font-size="9.975364" font-family="DejaVuSans"><tspan y="389.49809" x="27.886324 31.048514 34.400236 39.587427 43.49777 48.974245 52.325967 58.460817 64.356258 70.491107 73.25429 79.56869 85.673618 89.583957 95.71881 100.70649 107.030879 113.165729 117.265598 120.776927 126.87187 130.82213 140.53813 146.64305 152.95746 158.46387 164.59871 167.7609 174.08528">./src/evaluate_performance.py</tspan></text>
<text xml:space="preserve" transform="matrix(1 0 0 1 -14 -12)" font-size="9.975364" font-family="DejaVuSans" font-weight="bold"><tspan y="378.47679" x="22.717785 29.530959 36.02492 42.748319 46.18982 53.282304 60.0057 64.773929 68.21542 75.0685">Evaluation</tspan></text>
<g opacity=".99">
<g clip-path="url(#clip_26)">
<path transform="matrix(1,0,0,1,-14,-12)" d="M23.992 431.5H243.42601V447.496H23.992Z" fill="#d9ead3" fill-opacity=".992157"/>
<path transform="matrix(1,0,0,1,-14,-12)" stroke-width=".718227" stroke-linecap="butt" stroke-miterlimit="4" stroke-linejoin="miter" fill="none" stroke="#000000" d="M23.992 431.5H243.42601V447.496H23.992Z"/>
</g>
</g>
<text xml:space="preserve" transform="matrix(1 0 0 1 -14 -12)" font-size="9.975364" font-family="DejaVuSans"><tspan y="442.24964" x="28.70538 31.867569 35.21929 39.129636 45.264486 51.588869 57.683816 61.78369 65.69403 69.04575 75.37013 81.47505 85.41531 91.52023 94.871959 101.196338 103.95951 110.05446 113.9648 120.30913 126.65346 129.81565 136.1899 142.53423 146.12535 149.63668 155.73162 158.49478 164.81917 171.1635 177.50783 180.67002 183.8322 186.99439 190.15657 196.53083 202.87516 206.03734 211.51381 216.701">./report/data/plot{1,2}-fold{1,...5}.csv</tspan></text>
<g opacity=".99">
<g clip-path="url(#clip_27)">
<path transform="matrix(1,0,0,1,-14,-12)" d="M23.992 410.383H243.42601V426.379H23.992Z" fill="#d9ead3" fill-opacity=".992157"/>
<path transform="matrix(1,0,0,1,-14,-12)" stroke-width=".718227" stroke-linecap="butt" stroke-miterlimit="4" stroke-linejoin="miter" fill="none" stroke="#000000" d="M23.992 410.383H243.42601V426.379H23.992Z"/>
</g>
</g>
<text xml:space="preserve" transform="matrix(.9848101 0 0 1.0154243 -14 -12)" font-size="9.975364" font-family="DejaVuSans"><tspan y="414.63853" x="29.164589 32.32678 35.6785 39.588846 45.72369 52.048074 58.143018 62.242895 66.15324 69.50496 75.82934 81.934268 85.874538 91.97946 95.331188 101.466037 107.36147 113.46639 116.229579 122.54398 128.67884 132.58917 135.35236 141.4473 147.7617 152.74939 156.64977 162.7846 169.109 175.20394 179.30382 183.21416 188.20185 192.10222 198.23706 203.42426 209.73867 212.50185 216.41219 221.59938 224.79149 230.26798 235.45516">./report/data/evaluation_report_results.csv</tspan></text>
<path transform="matrix(1,0,0,1,-14,-12)" stroke-width=".718227" stroke-linecap="butt" stroke-miterlimit="4" stroke-linejoin="miter" fill="none" stroke="#000000" d="M54.367 400.848 54.332 408.914"/>
<path transform="matrix(.00420628,-1,1,.00420628,-14,-12)" d="M-404.921 57.789-409.631 56.059-404.924 54.328C-405.673 55.347-405.671 56.745-404.921 57.789ZM-404.921 57.789" fill-rule="evenodd"/>
<path transform="matrix(.00420628,-1,1,.00420628,-14,-12)" stroke-width=".269333" stroke-linecap="butt" stroke-linejoin="round" fill="none" stroke="#000000" d="M-404.921 57.789-409.631 56.059-404.924 54.328C-405.673 55.347-405.671 56.745-404.921 57.789ZM-404.921 57.789"/>
<path transform="matrix(1,0,0,1,-14,-12)" stroke-width=".829488" stroke-linecap="butt" stroke-dasharray=".829488,2.488468" stroke-miterlimit="4" stroke-linejoin="miter" fill="none" stroke="#040000" d="M27.184 364.578H239.145C244.91 364.578 249.555 369.223 249.555 374.992V444.113C249.555 449.883 244.91 454.523 239.145 454.523H27.184C21.414 454.523 16.77 449.883 16.77 444.113V374.992C16.77 369.223 21.414 364.578 27.184 364.578ZM27.184 364.578"/>
<text xml:space="preserve" transform="matrix(1 0 0 1 -14 -12)" font-size="9.975364" font-family="DejaVuSans" font-weight="bold"><tspan y="255.093" x="581.6016 588.4148 594.8489 601.98129 608.83438 613.7522">Export</tspan></text>
<path transform="matrix(1,0,0,1,-14,-12)" stroke-width=".718227" stroke-linecap="butt" stroke-dasharray=".718227,2.15468" stroke-miterlimit="4" stroke-linejoin="miter" fill="none" stroke="#040000" d="M598.117 237.535H752.66C766.332 237.535 777.336 248.738 777.336 262.656V429.457C777.336 443.375 766.332 454.582 752.66 454.582H598.117C584.449 454.582 573.445 443.375 573.445 429.457V262.656C573.445 248.738 584.449 237.535 598.117 237.535ZM598.117 237.535"/>
<g clip-path="url(#clip_28)">
<path transform="matrix(1,0,0,1,-14,-12)" d="M585.664 269.727H709.941V285.262H585.664Z" fill="#ffd5d5"/>
<path transform="matrix(1,0,0,1,-14,-12)" stroke-width=".716654" stroke-linecap="butt" stroke-miterlimit="4" stroke-linejoin="miter" fill="none" stroke="#040000" d="M585.664 269.727H709.941V285.262H585.664Z"/>
</g>
<text xml:space="preserve" transform="matrix(1 0 0 1 -14 -12)" font-size="9.975364" font-family="DejaVuSans"><tspan y="280.10664" x="592.07479 595.23696 598.5887 603.7759 607.6862 613.1627 616.51449 622.49966 628.3951 634.7195 640.81448 644.9143 648.82467 653.8123 657.71267 663.8475 669.03469 675.34909 678.11227 682.0226 687.2098 690.40188 696.72628">./src/export_results.py</tspan></text>
<g clip-path="url(#clip_29)">
<path transform="matrix(1,0,0,1,-14,-12)" d="M585.664 297.031H763.648V312.42903H585.664Z" fill="#d9ead3"/>
<path transform="matrix(1,0,0,1,-14,-12)" stroke-width=".718227" stroke-linecap="butt" stroke-miterlimit="4" stroke-linejoin="miter" fill="none" stroke="#040000" d="M585.664 297.031H763.648V312.42903H585.664Z"/>
</g>
<text xml:space="preserve" transform="matrix(1 0 0 1 -14 -12)" font-size="9.975364" font-family="DejaVuSans"><tspan y="307.48289" x="589.2275 592.38967 595.7414 600.9286 604.8389 610.3154 613.6672 617.6074 623.71237 630.03677 632.7999 638.93478 645.2791 652.74069 658.8755 667.0254 670.18759 673.34976 679.1155 686.577 689.7392 692.90139 698.6372 704.65237 711.0266 717.84976 721.9496 725.8599 728.6231 734.0996 736.8628 742.9976 748.1848 751.347 754.11019">./src/table{New, FN, FP}Articles.js</tspan></text>
<path transform="matrix(1,0,0,1,-14,-12)" stroke-width=".718227" stroke-linecap="butt" stroke-miterlimit="4" stroke-linejoin="miter" fill="none" stroke="#000000" d="M621.562 284.961 621.648 295.625"/>
<path transform="matrix(-.00812052,-1,1,-.00812052,-14,-12)" d="M-296.898 620.945-301.606 619.215-296.897 617.484C-297.648 618.505-297.643 619.903-296.898 620.945ZM-296.898 620.945" fill-rule="evenodd"/>
<path transform="matrix(-.00812052,-1,1,-.00812052,-14,-12)" stroke-width=".269326" stroke-linecap="butt" stroke-linejoin="round" fill="none" stroke="#000000" d="M-296.898 620.945-301.606 619.215-296.897 617.484C-297.648 618.505-297.643 619.903-296.898 620.945ZM-296.898 620.945"/>
<path transform="matrix(1,0,0,1,-14,-12)" stroke-width=".718227" stroke-linecap="butt" stroke-dasharray=".718227,2.872907" stroke-miterlimit="4" stroke-linejoin="miter" fill="none" stroke="#040000" d="M582.449 266.98H768.62899V317.164H582.449Z"/>
<g clip-path="url(#clip_30)">
<path transform="matrix(1,0,0,1,-14,-12)" d="M585.488 420.523H662.402V436.164H585.488Z" fill="#d9ead3"/>
<path transform="matrix(1,0,0,1,-14,-12)" stroke-width=".718227" stroke-linecap="butt" stroke-miterlimit="4" stroke-linejoin="miter" fill="none" stroke="#040000" d="M585.488 420.523H662.402V436.164H585.488Z"/>
</g>
<text xml:space="preserve" transform="matrix(1 0 0 1 -14 -12)" font-size="9.975364" font-family="DejaVuSans"><tspan y="431.67005" x="593.9999 597.16207 600.5138 603.277 609.5914 615.9158 621.891 627.78646 630.9486 637.263 641.17337 650.91928">./index.html</tspan></text>
<g clip-path="url(#clip_31)">
<path transform="matrix(1,0,0,1,-14,-12)" d="M585.488 344.355H662.31198V360.039H585.488Z" fill="#ffd5d5"/>
<path transform="matrix(1,0,0,1,-14,-12)" stroke-width=".718227" stroke-linecap="butt" stroke-miterlimit="4" stroke-linejoin="miter" fill="none" stroke="#040000" d="M585.488 344.355H662.31198V360.039H585.488Z"/>
</g>
<text xml:space="preserve" transform="matrix(1 0 0 1 -14 -12)" font-size="9.975364" font-family="DejaVuSans"><tspan y="354.9505" x="589.8584 593.02059 596.3723 601.5595 605.46987 610.94638 614.2981 624.044 630.1489 632.9121 639.2265 642.3887 645.15188">./src/main.js</tspan></text>
<g clip-path="url(#clip_32)">
<path transform="matrix(1,0,0,1,-14,-12)" d="M585.488 368.566H763.472V383.961H585.488Z" fill="#ffd5d5"/>
<path transform="matrix(1,0,0,1,-14,-12)" stroke-width=".718227" stroke-linecap="butt" stroke-miterlimit="4" stroke-linejoin="miter" fill="none" stroke="#040000" d="M585.488 368.566H763.472V383.961H585.488Z"/>
</g>
<text xml:space="preserve" transform="matrix(.9889196 0 0 1.0112046 -14 -12)" font-size="9.975364" font-family="DejaVuSans"><tspan y="374.84739" x="596.4794 599.64157 602.9932 608.1804 612.09078 617.5672 620.91897 627.26327 633.3682 639.6826 646.007 648.7702 654.9051 661.2494 665.6984 671.80337 678.12777 683.31497 686.4771 690.92617 697.03109 703.35549 706.11868 712.25357 715.4157 720.9919 727.0968 733.4212 739.5561 744.7433 751.08767 754.2498 757.01296">./src/handle{Tabs,Table,Pages}.js</tspan></text>
<g clip-path="url(#clip_33)">
<path transform="matrix(1,0,0,1,-14,-12)" d="M585.488 392.488H662.31198V408.172H585.488Z" fill="#ffd5d5"/>
<path transform="matrix(1,0,0,1,-14,-12)" stroke-width=".718227" stroke-linecap="butt" stroke-miterlimit="4" stroke-linejoin="miter" fill="none" stroke="#040000" d="M585.488 392.488H662.31198V408.172H585.488Z"/>
</g>
<text xml:space="preserve" transform="matrix(1 0 0 1 -14 -12)" font-size="9.975364" font-family="DejaVuSans"><tspan y="403.08268" x="589.8584 593.02059 596.3723 601.5595 605.46987 610.94638 614.2981 619.5152 623.42556 629.321 632.08419 638.219 641.38119 646.85769 652.04489">./src/style.css</tspan></text>
<path transform="matrix(1,0,0,1,-14,-12)" stroke-width=".718227" stroke-linecap="butt" stroke-miterlimit="4" stroke-linejoin="miter" fill="none" stroke="#000000" d="M606.383 408.383 606.469 419.047"/>
<path transform="matrix(-.00812052,-1,1,-.00812052,-14,-12)" d="M-420.188 604.764-424.893 603.03-420.188 601.299C-420.938 602.324-420.934 603.722-420.188 604.764ZM-420.188 604.764" fill-rule="evenodd"/>
<path transform="matrix(-.00812052,-1,1,-.00812052,-14,-12)" stroke-width=".269326" stroke-linecap="butt" stroke-linejoin="round" fill="none" stroke="#000000" d="M-420.188 604.764-424.893 603.03-420.188 601.299C-420.938 602.324-420.934 603.722-420.188 604.764ZM-420.188 604.764"/>
<path transform="matrix(1,0,0,1,-14,-12)" stroke-width=".718227" stroke-linecap="butt" stroke-dasharray=".718227,2.872907" stroke-miterlimit="4" stroke-linejoin="miter" fill="none" stroke="#040000" d="M582.449 341.574H767.60098V439.773H582.449Z"/>
<path transform="matrix(1,0,0,1,-14,-12)" stroke-width=".740724" stroke-linecap="butt" stroke-miterlimit="4" stroke-linejoin="miter" fill="none" stroke="#000000" d="M608.055 317.105 608.223 340.496"/>
<path transform="matrix(-.00713236,-1,1,-.00713236,-14,-12)" d="M-340.943 607.557-345.797 605.768-340.945 603.982C-341.718 605.039-341.712 606.481-340.943 607.557ZM-340.943 607.557" fill-rule="evenodd"/>
<path transform="matrix(-.00713236,-1,1,-.00713236,-14,-12)" stroke-width=".277765" stroke-linecap="butt" stroke-linejoin="round" fill="none" stroke="#000000" d="M-340.943 607.557-345.797 605.768-340.945 603.982C-341.718 605.039-341.712 606.481-340.943 607.557ZM-340.943 607.557"/>
<text xml:space="preserve" transform="matrix(1 0 0 1 -14 -12)" font-size="9.975364" font-family="DejaVuSans" font-weight="bold"><tspan y="207.25919" x="315.847 323.14897 328.0668 334.8301 341.9625 348.68589 353.63368 360.35707 365.12528 368.53684 375.41987">Preparation</tspan></text>
<path transform="matrix(1,0,0,1,-14,-12)" stroke-width=".718227" stroke-linecap="butt" stroke-miterlimit="4" stroke-linejoin="miter" fill="none" stroke="#000000" d="M338.965 240.023 338.926 249.5"/>
<path transform="matrix(.00402763,-1,1,.00402763,-14,-12)" d="M-244.374 341.664-249.084 339.933-244.376 338.199C-245.126 339.222-245.124 340.62-244.374 341.664ZM-244.374 341.664" fill-rule="evenodd"/>
<path transform="matrix(.00402763,-1,1,.00402763,-14,-12)" stroke-width=".269333" stroke-linecap="butt" stroke-linejoin="round" fill="none" stroke="#000000" d="M-244.374 341.664-249.084 339.933-244.376 338.199C-245.126 339.222-245.124 340.62-244.374 341.664ZM-244.374 341.664"/>
<path transform="matrix(1,0,0,1,-14,-12)" stroke-width=".718227" stroke-linecap="butt" stroke-miterlimit="4" stroke-linejoin="miter" fill="none" stroke="#000000" d="M425.441 240.504 425.402 249.98"/>
<path transform="matrix(.00402763,-1,1,.00402763,-14,-12)" d="M-244.506 428.141-249.216 426.41-244.504 424.68C-245.258 425.703-245.252 427.101-244.506 428.141ZM-244.506 428.141" fill-rule="evenodd"/>
<path transform="matrix(.00402763,-1,1,.00402763,-14,-12)" stroke-width=".269333" stroke-linecap="butt" stroke-linejoin="round" fill="none" stroke="#000000" d="M-244.506 428.141-249.216 426.41-244.504 424.68C-245.258 425.703-245.252 427.101-244.506 428.141ZM-244.506 428.141"/>
<path transform="matrix(1,0,0,1,-14,-12)" stroke-width=".718227" stroke-linecap="butt" stroke-miterlimit="4" stroke-linejoin="miter" fill="none" stroke="#000000" d="M355.352 265.121 355.312 274.598"/>
<path transform="matrix(.00402763,-1,1,.00402763,-14,-12)" d="M-269.405 358.151-274.115 356.42-269.407 354.687C-270.157 355.709-270.155 357.108-269.405 358.151ZM-269.405 358.151" fill-rule="evenodd"/>
<path transform="matrix(.00402763,-1,1,.00402763,-14,-12)" stroke-width=".269333" stroke-linecap="butt" stroke-linejoin="round" fill="none" stroke="#000000" d="M-269.405 358.151-274.115 356.42-269.407 354.687C-270.157 355.709-270.155 357.108-269.405 358.151ZM-269.405 358.151"/>
<g clip-path="url(#clip_34)">
<path transform="matrix(1,0,0,1,-14,-12)" d="M321.055 224.668H386.227V240.195H321.055Z" fill="#cfe2f3"/>
<path transform="matrix(1,0,0,1,-14,-12)" stroke-width=".720712" stroke-linecap="butt" stroke-miterlimit="4" stroke-linejoin="miter" fill="none" stroke="#040000" d="M321.055 224.668H386.227V240.195H321.055Z"/>
</g>
<text xml:space="preserve" transform="matrix(1 0 0 1 -14 -12)" font-size="9.975364" font-family="DejaVuSans"><tspan y="235.09668" x="338.255 343.4422 349.76658 355.8715 362.8343">spaCy</tspan></text>
<g clip-path="url(#clip_35)">
<path transform="matrix(1,0,0,1,-14,-12)" d="M407.902 224.668H473.074V240.195H407.902Z" fill="#cfe2f3"/>
<path transform="matrix(1,0,0,1,-14,-12)" stroke-width=".720712" stroke-linecap="butt" stroke-miterlimit="4" stroke-linejoin="miter" fill="none" stroke="#040000" d="M407.902 224.668H473.074V240.195H407.902Z"/>
</g>
<text xml:space="preserve" transform="matrix(1 0 0 1 -14 -12)" font-size="9.975364" font-family="DejaVuSans"><tspan y="235.18437" x="422.3947 428.7191 434.85395 441.16835 446.35554 449.1187">gensim</tspan></text>
<g clip-path="url(#clip_36)">
<path transform="matrix(1,0,0,1,-14,-12)" d="M321.055 250.734H473.078V265.367H321.055Z" fill="#ffd5d5"/>
<path transform="matrix(1,0,0,1,-14,-12)" stroke-width=".718227" stroke-linecap="butt" stroke-miterlimit="4" stroke-linejoin="miter" fill="none" stroke="#040000" d="M321.055 250.734H473.078V265.367H321.055Z"/>
</g>
<text xml:space="preserve" transform="matrix(1 0 0 1 -14 -12)" font-size="9.975364" font-family="DejaVuSans"><tspan y="260.66377" x="328.60688 331.76908 335.1208 340.30799 344.21833 349.6948 353.0465 359.37089 363.2912 369.42607 375.75044 379.64085 385.73579 391.21226 397.3471 402.5343 407.7215 412.70918 418.8141 422.9439 426.85426 429.61744 435.0939 437.8571 443.99195 449.17915 452.34135 458.6657">./src/preprocess_articles.py</tspan></text>
<g clip-path="url(#clip_37)">
<path transform="matrix(1,0,0,1,-14,-12)" d="M321.055 275.902H438.461V291.406H321.055Z" fill="#d9ead3"/>
<path transform="matrix(1,0,0,1,-14,-12)" stroke-width=".718227" stroke-linecap="butt" stroke-miterlimit="4" stroke-linejoin="miter" fill="none" stroke="#040000" d="M321.055 275.902H438.461V291.406H321.055Z"/>
</g>
<text xml:space="preserve" transform="matrix(1 0 0 1 -14 -12)" font-size="9.975364" font-family="DejaVuSans"><tspan y="286.40647" x="328.80448 331.96669 335.3184 341.64277 347.74769 351.65803 357.79289 361.1446 367.2495 371.3494 375.28968 378.05287 383.52934 386.2925 392.42738 397.61457 400.77677 407.10115 409.86433 415.3408 421.11653 423.8797">./data/articles.pickle</tspan></text>
<g clip-path="url(#clip_38)">
<path transform="matrix(1,0,0,1,-14,-12)" d="M321.246 297.559H438.644V313.059H321.246Z" fill="#d9ead3"/>
<path transform="matrix(1,0,0,1,-14,-12)" stroke-width=".751395" stroke-linecap="butt" stroke-miterlimit="4" stroke-linejoin="miter" fill="none" stroke="#040000" d="M321.246 297.559H438.644V313.059H321.246Z"/>
</g>
<text xml:space="preserve" transform="matrix(1 0 0 1 -14 -12)" font-size="9.975364" font-family="DejaVuSans"><tspan y="308.05995" x="328.6994 331.8616 335.21333 341.5377 347.6426 351.55296 357.6878 361.03953 364.9399 371.07478 376.55125 382.64619 386.58647 392.91084 398.09803 401.26023 407.5846 410.34779 415.82426 421.6299 424.3931">./data/records.pickle</tspan></text>
<path transform="matrix(1,0,0,1,-14,-12)" stroke-width=".723348" stroke-linecap="butt" stroke-dasharray=".723348,2.89339" stroke-miterlimit="4" stroke-linejoin="miter" fill="none" stroke="#040000" d="M317.125 220.965H477.926V318.551H317.125Z"/>
<path transform="matrix(1,0,0,1,-14,-12)" stroke-width=".718227" stroke-linecap="butt" stroke-miterlimit="4" stroke-linejoin="miter" fill="none" stroke="#000000" d="M340.781 361.578 340.746 371.055"/>
<path transform="matrix(.00402763,-1,1,.00402763,-14,-12)" d="M-365.919 343.974-370.629 342.239-365.922 340.509C-366.671 341.532-366.67 342.93-365.919 343.974ZM-365.919 343.974" fill-rule="evenodd"/>
<path transform="matrix(.00402763,-1,1,.00402763,-14,-12)" stroke-width=".269333" stroke-linecap="butt" stroke-linejoin="round" fill="none" stroke="#000000" d="M-365.919 343.974-370.629 342.239-365.922 340.509C-366.671 341.532-366.67 342.93-365.919 343.974ZM-365.919 343.974"/>
<path transform="matrix(1,0,0,1,-14,-12)" stroke-width=".718227" stroke-linecap="butt" stroke-miterlimit="4" stroke-linejoin="miter" fill="none" stroke="#000000" d="M357.172 386.676 357.133 396.152"/>
<path transform="matrix(.00402763,-1,1,.00402763,-14,-12)" d="M-390.951 360.461-395.661 358.73-390.953 356.996C-391.703 358.019-391.701 359.417-390.951 360.461ZM-390.951 360.461" fill-rule="evenodd"/>
<path transform="matrix(.00402763,-1,1,.00402763,-14,-12)" stroke-width=".269333" stroke-linecap="butt" stroke-linejoin="round" fill="none" stroke="#000000" d="M-390.951 360.461-395.661 358.73-390.953 356.996C-391.703 358.019-391.701 359.417-390.951 360.461ZM-390.951 360.461"/>
<g clip-path="url(#clip_39)">
<path transform="matrix(1,0,0,.858206,-14,-12)" d="M321.102 403.603H447.063V421.705H321.102Z" fill="#cfe2f3"/>
<path transform="matrix(1,0,0,.858206,-14,-12)" stroke-width=".834688" stroke-linecap="butt" stroke-miterlimit="4" stroke-linejoin="miter" fill="none" stroke="#040000" d="M321.102 403.603H447.063V421.705H321.102Z"/>
</g>
<text xml:space="preserve" transform="matrix(1 0 0 1 -14 -12)" font-size="9.975364" font-family="DejaVuSans"><tspan y="357.44148" x="329.60456 332.76676 336.11848 341.30567 345.216 350.69248 354.0442 362.67289 368.7778 371.541 374.30418 380.43904 384.34938 387.70109 394.02546 396.78865 403.10304 406.45475 416.20069 422.3056 425.0688 427.83198 433.96684">./src/Mallet/bin/mallet</tspan></text>
<g clip-path="url(#clip_40)">
<path transform="matrix(1,0,0,1,-14,-12)" d="M321.086 372.301H473.086V387.813H321.086Z" fill="#ffd5d5"/>
<path transform="matrix(1,0,0,1,-14,-12)" stroke-width=".739477" stroke-linecap="butt" stroke-miterlimit="4" stroke-linejoin="miter" fill="none" stroke="#040000" d="M321.086 372.301H473.086V387.813H321.086Z"/>
</g>
<text xml:space="preserve" transform="matrix(1 0 0 1 -14 -12)" font-size="9.975364" font-family="DejaVuSans"><tspan y="382.67" x="328.31486 331.47706 334.82878 340.01597 343.9263 349.40278 352.7545 356.2658 362.40068 368.50559 372.44587 378.76026 382.66065 388.7955 393.9827 398.97038 404.93565 410.8311 414.74143 418.8413 424.94624 430.45265 434.36299 437.12617 443.2211 449.5355 452.6977 459.02207">./src/features_extraction.py</tspan></text>
<g clip-path="url(#clip_41)">
<path transform="matrix(1,0,0,1,-14,-12)" d="M321.074 417.734H500.914V433.265H321.074Z" fill="#d9ead3"/>
<path transform="matrix(1,0,0,1,-14,-12)" stroke-width=".717085" stroke-linecap="butt" stroke-miterlimit="4" stroke-linejoin="miter" fill="none" stroke="#040000" d="M321.074 417.734H500.914V433.265H321.074Z"/>
</g>
<text xml:space="preserve" transform="matrix(1 0 0 1 -14 -12)" font-size="9.975364" font-family="DejaVuSans"><tspan y="428.25303" x="324.3278 327.49 330.8417 340.5577 346.65266 352.97703 359.11189 361.87507 367.06227 370.41398 373.17716 379.50154 385.84587 394.02568 400.1206 404.0509 410.37528 413.9664 420.31074 426.65507 429.81727 432.97947 436.1716 439.3338 442.496 448.84034 455.18467 458.34687 464.67124 467.43443 472.94084 478.71656 481.47975">./models/id2word-{1,...,5}.pickle</tspan></text>
<g clip-path="url(#clip_42)">
<path transform="matrix(1,0,0,1,-14,-12)" d="M321.074 397.223H500.914V412.754H321.074Z" fill="#d9ead3"/>
<path transform="matrix(1,0,0,1,-14,-12)" stroke-width=".717085" stroke-linecap="butt" stroke-miterlimit="4" stroke-linejoin="miter" fill="none" stroke="#040000" d="M321.074 397.223H500.914V412.754H321.074Z"/>
</g>
<text xml:space="preserve" transform="matrix(1 0 0 1 -14 -12)" font-size="9.975364" font-family="DejaVuSans"><tspan y="407.7402" x="324.3278 327.49 330.8417 340.5577 346.65266 352.97703 359.11189 361.87507 367.06227 370.41398 376.30943 382.44429 387.95069 391.86103 397.95597 402.05586 404.81904 410.0461 416.18098 419.66239 423.2535 429.59785 435.94218 439.10438 442.26658 445.4587 448.6209 451.7831 458.12745 464.47178 467.63398 473.95835 476.72154 482.22795 488.00367 490.76686">./models/vectorizer-{1,...,5}.pickle</tspan></text>
<path transform="matrix(1,0,0,1,-14,-12)" stroke-width=".777622" stroke-linecap="butt" stroke-dasharray=".777622,3.110491" stroke-miterlimit="4" stroke-linejoin="miter" fill="none" stroke="#040000" d="M317.152 341.453H505.367V437.805H317.152Z"/>
<path transform="matrix(1,0,0,1,-14,-12)" stroke-width=".663282" stroke-linecap="butt" stroke-dasharray=".663282,2.653127" stroke-miterlimit="4" stroke-linejoin="miter" fill="none" stroke="#040000" d="M333.746 189.578H489.309C506.305 189.578 519.984 203.258 519.984 220.254V423.93C519.984 440.926 506.305 454.609 489.309 454.609H333.746C316.754 454.609 303.07 440.926 303.07 423.93V220.254C303.07 203.258 316.754 189.578 333.746 189.578ZM333.746 189.578"/>
<path transform="matrix(1,0,0,1,-14,-12)" stroke-width=".721864" stroke-linecap="butt" stroke-miterlimit="4" stroke-linejoin="miter" fill="none" stroke="#000000" d="M364.441 318.598 364.613 340.199"/>
<path transform="matrix(-.00795307,-1,1,-.00795307,-14,-12)" d="M-339.298 363.634-344.031 361.893-339.298 360.153C-340.056 361.182-340.052 362.585-339.298 363.634ZM-339.298 363.634" fill-rule="evenodd"/>
<path transform="matrix(-.00795307,-1,1,-.00795307,-14,-12)" stroke-width=".27069" stroke-linecap="butt" stroke-linejoin="round" fill="none" stroke="#000000" d="M-339.298 363.634-344.031 361.893-339.298 360.153C-340.056 361.182-340.052 362.585-339.298 363.634ZM-339.298 363.634"/>
<path transform="matrix(1,0,0,1,-14,-12)" stroke-width=".935218" stroke-linecap="butt" stroke-miterlimit="4" stroke-linejoin="miter" fill="none" stroke="#000000" d="M409.227 115.797 408.816 187.48"/>
<path transform="matrix(.00573688,-1,1,.00573688,-14,-12)" d="M-180.237 412.139-186.367 409.886-180.236 407.632C-181.216 408.961-181.21 410.782-180.237 412.139ZM-180.237 412.139" fill-rule="evenodd"/>
<path transform="matrix(.00573688,-1,1,.00573688,-14,-12)" stroke-width=".350701" stroke-linecap="butt" stroke-linejoin="round" fill="none" stroke="#000000" d="M-180.237 412.139-186.367 409.886-180.236 407.632C-181.216 408.961-181.21 410.782-180.237 412.139ZM-180.237 412.139"/>
<path transform="matrix(1,0,0,1,-14,-12)" stroke-width=".997784" stroke-linecap="butt" stroke-miterlimit="4" stroke-linejoin="miter" fill="none" stroke="#000000" d="M519.969 284.262 571.145 302.066"/>
<path transform="matrix(-1,-.347946,.347946,-1,-14,-12)" d="M-598.288-89.899-604.469-92.17-598.291-94.444C-599.277-93.101-599.272-91.267-598.288-89.899ZM-598.288-89.899" fill-rule="evenodd"/>
<path transform="matrix(-1,-.347946,.347946,-1,-14,-12)" stroke-width=".353388" stroke-linecap="butt" stroke-linejoin="round" fill="none" stroke="#000000" d="M-598.288-89.899-604.469-92.17-598.291-94.444C-599.277-93.101-599.272-91.267-598.288-89.899ZM-598.288-89.899"/>
<path transform="matrix(1,0,0,1,-14,-12)" stroke-width=".935218" stroke-linecap="butt" stroke-miterlimit="4" stroke-linejoin="miter" fill="none" stroke="#000000" d="M302.73 287.672 187.348 363.504"/>
<path transform="matrix(1,-.657195,.657195,1,-14,-12)" d="M-31.911 341.735-37.034 339.853-31.911 337.966C-32.729 339.081-32.725 340.603-31.911 341.735ZM-31.911 341.735" fill-rule="evenodd"/>
<path transform="matrix(1,-.657195,.657195,1,-14,-12)" stroke-width=".29308" stroke-linecap="butt" stroke-linejoin="round" fill="none" stroke="#000000" d="M-31.911 341.735-37.034 339.853-31.911 337.966C-32.729 339.081-32.725 340.603-31.911 341.735ZM-31.911 341.735"/>
</g>
</g>
</g>
</svg>
